<?xml version="1.0" encoding="UTF-8"?>
<!-- 2018-04-27 16:44:43 Generated by QCAD SVG Exporter -->
<svg width="505.72mm" height="123.4800000000001mm" viewBox="-279.72 -101.00000000000006 505.72 123.4800000000001" version="1.1" xmlns="http://www.w3.org/2000/svg" style="stroke-linecap:round;stroke-linejoin:round;fill:none">
    <g transform="scale(1,-1)">
        <!-- Polyline -->
        <path d="M0,0 L-210,0" style="stroke:#000000;stroke-width:1;"/>
        <!-- Polyline -->
        <path d="M0,0 L210,0" style="stroke:#000000;stroke-width:1;"/>
        <!-- Polyline -->
        <path d="M210,99.99999999999994 L0,75" style="stroke:#000000;stroke-width:1;"/>
        <!-- Polyline -->
        <path d="M-210,100 L0,75" style="stroke:#000000;stroke-width:1;"/>
        <!-- Arc -->
        <path d="M-70,25 A12.5,12.5 0 0,1 -70,50 " style="stroke:#000000;stroke-width:1;"/>
        <!-- Arc -->
        <path d="M-140,50 A12.5,12.5 0 0,1 -140,25 " style="stroke:#000000;stroke-width:1;"/>
        <!-- Arc -->
        <path d="M-210,25 A12.5,12.5 0 0,1 -210,0 " style="stroke:#000000;stroke-width:1;"/>
        <!-- Arc -->
        <path d="M210,-2.5934809855243657e-13 A12.5,12.5 0 0,1 210,24.99999999999974 " style="stroke:#000000;stroke-width:1;"/>
        <!-- Arc -->
        <path d="M70.00000000000001,49.99999999999997 A12.5,12.5 0 0,1 70.00000000000001,24.99999999999997 " style="stroke:#000000;stroke-width:1;"/>
        <!-- Arc -->
        <path d="M140,24.999999999999993 A12.5,12.5 0 0,1 140,49.99999999999999 " style="stroke:#000000;stroke-width:1;"/>
        <!-- Line -->
        <!-- Line -->
        <!-- Line -->
        <!-- Line -->
        <!-- Line -->
        <!-- Line -->
        <!-- Line -->
        <path d="M-140,50 L-70,50 " style="stroke:#000000;stroke-width:1;"/>
        <!-- Line -->
        <path d="M140,49.99999999999997 L70.00000000000001,50 " style="stroke:#000000;stroke-width:1;"/>
        <!-- Line -->
        <path d="M-140,25 L-70,25 " style="stroke:#000000;stroke-width:1;"/>
        <!-- Line -->
        <path d="M140,25.00000000000008 L70,24.99999999999999 " style="stroke:#000000;stroke-width:1;"/>
        <!-- Line -->
        <path d="M-140,39 L-140,36 " style="stroke:#00ff00;stroke-width:0.25;"/>
        <!-- Line -->
        <path d="M140,39.00000000000002 L140,35.99999999999999 " style="stroke:#00ff00;stroke-width:0.25;"/>
        <!-- Line -->
        <path d="M-70,39 L-70,36 " style="stroke:#00ff00;stroke-width:0.25;"/>
        <!-- Line -->
        <path d="M70,38.99999999999998 L70,36.00000000000001 " style="stroke:#00ff00;stroke-width:0.25;"/>
        <!-- Line -->
        <path d="M141.5,37.49999999999997 L138.5,37.49999999999998 " style="stroke:#00ff00;stroke-width:0.25;"/>
        <!-- Line -->
        <path d="M210,38.99999999999992 L210,36.00000000000005 " style="stroke:#00ff00;stroke-width:0.25;"/>
        <!-- Line -->
        <path d="M71.5,37.50000000000001 L68.5,37.50000000000001 " style="stroke:#00ff00;stroke-width:0.25;"/>
        <!-- Line -->
        <path d="M211.5,37.49999999999996 L208.5,37.5 " style="stroke:#00ff00;stroke-width:0.25;"/>
        <!-- Line -->
        <path d="M-71.5,37.5 L-68.5,37.5 " style="stroke:#00ff00;stroke-width:0.25;"/>
        <!-- Line -->
        <path d="M-141.5,37.5 L-138.5,37.5 " style="stroke:#00ff00;stroke-width:0.25;"/>
        <!-- Line -->
        <path d="M-210,39 L-210,36 " style="stroke:#00ff00;stroke-width:0.25;"/>
        <!-- Line -->
        <path d="M-211.5,37.5 L-208.5,37.5 " style="stroke:#00ff00;stroke-width:0.25;"/>
        <!-- Circle -->
        <circle cx="5.4e-15" cy="87.49999999999999" r="12.5" style="stroke:#ff00ff;stroke-width:0.25;"/>
        <!-- Circle -->
        <circle cx="0" cy="87.49999999999999" r="12.5" style="stroke:#ff00ff;stroke-width:0.25;"/>
        <!-- Line -->
        <path d="M5.4e-15,89 L5.3e-15,86 " style="stroke:#00ff00;stroke-width:0.25;"/>
        <!-- Line -->
        <path d="M1.500000000000001,87.5 L-1.49999999999999,87.5 " style="stroke:#00ff00;stroke-width:0.25;"/>
        <!-- Line -->
        <path d="M0,89 L0,86 " style="stroke:#00ff00;stroke-width:0.25;"/>
        <!-- Line -->
        <path d="M-1.5,87.5 L1.5,87.5 " style="stroke:#00ff00;stroke-width:0.25;"/>
        <!-- Circle -->
        <circle cx="140" cy="37.49999999999999" r="12.5" style="stroke:#ff00ff;stroke-width:0.25;"/>
        <!-- Circle -->
        <circle cx="-140" cy="37.5" r="12.5" style="stroke:#ff00ff;stroke-width:0.25;"/>
        <!-- Circle -->
        <circle cx="70.00000000000001" cy="37.49999999999997" r="12.5" style="stroke:#ff00ff;stroke-width:0.25;"/>
        <!-- Circle -->
        <circle cx="-70" cy="37.5" r="12.5" style="stroke:#ff00ff;stroke-width:0.25;"/>
        <!-- Circle -->
        <circle cx="-210" cy="37.5" r="12.5" style="stroke:#ff00ff;stroke-width:0.25;"/>
        <!-- Circle -->
        <circle cx="210" cy="37.49999999999993" r="12.5" style="stroke:#ff00ff;stroke-width:0.25;"/>
        <!-- Line -->
        <path d="M-225,25 L-188.35,25 " style="stroke:#00ff00;stroke-width:0.25;"/>
        <!-- Line -->
        <path d="M225,24.99999999999995 L188.35,25.00000000000004 " style="stroke:#00ff00;stroke-width:0.25;"/>
        <!-- Line -->
        <path d="M-188.35,25 L-225,88.47966209739943 " style="stroke:#00ff00;stroke-width:0.25;"/>
        <!-- Line -->
        <path d="M188.35,25.00000000000004 L225,88.47966209739944 " style="stroke:#00ff00;stroke-width:0.25;"/>
        <!-- Polyline -->
        <path d="M-225,0 L225,0 L225,100 L-225,100 Z" style="stroke:#00ffff;stroke-width:0.25;"/>
        <!-- Arc -->
        <path d="M-210.00000000000003,100 A12.50000000000001,12.50000000000001 0 0,1 -220.90803126760787,81.39550543739375 " style="stroke:#000000;stroke-width:1;"/>
        <!-- Arc -->
        <path d="M220.90803126760787,81.39550543739381 A12.50000000000001,12.50000000000001 0 0,1 210.00000000000003,100.00000000000006 " style="stroke:#000000;stroke-width:1;"/>
        <!-- Aligned Dimension -->
        <g>
            <path d="M-225,-15 L-218.52,-13.920990167052798 L-218.52,-16.079009832947204 Z" style="stroke:#a0a0a4;stroke-width:0.25;fill:#a0a0a4;fill-rule:evenodd;"/>
            <path d="M225,-15.000000000000046 L218.52,-16.07900983294725 L218.52,-13.920990167052844 Z" style="stroke:#a0a0a4;stroke-width:0.25;fill:#a0a0a4;fill-rule:evenodd;"/>
            <g>
                <path d="M-15.479999999999995,-11.760000000000025 L-15.479999999999995,-8.880000000000026 M-14.399999999999995,-10.320000000000025 L-17.999999999999993,-10.320000000000025 L-16.55999999999999,-5.280000000000025" style="stroke:#a0a0a4;stroke-width:0.25;"/>
                <path d="M-9.359999999999996,-5.280000000000025 L-12.239999999999997,-5.280000000000025 L-12.239999999999997,-8.160000000000025 L-10.799999999999995,-8.160000000000025 M-9.359999999999996,-9.600000000000025 C-9.359999999999996,-8.804709960288026 -10.004709960287995,-8.160000000000025 -10.799999999999995,-8.160000000000025 M-9.359999999999996,-9.600000000000025 L-9.359999999999996,-10.320000000000025 M-10.799999999999995,-11.760000000000025 C-10.004709960287995,-11.760000000000025 -9.359999999999996,-11.115290039712026 -9.359999999999996,-10.320000000000025 M-10.799999999999995,-11.760000000000025 L-12.239999999999997,-11.760000000000025" style="stroke:#a0a0a4;stroke-width:0.25;"/>
                <path d="M-5.100026691812392,-5.640128041330854 L-5.099956679957133,-5.6400614547306684 C-5.239665547525663,-5.42342118478347 -5.483083867490212,-5.280000000000025 -5.759999999999996,-5.280000000000025 C-6.036731412190804,-5.280000000000025 -6.280009687188167,-5.423229906864159 -6.419729087267177,-5.639574538917719 M-6.419026777521317,-5.637906661584572 L-6.419144355100688,-5.637720257307247 C-6.732077423453092,-6.05535075301687 -6.952788201913796,-6.545991820386808 -7.050925625689645,-7.078432239010523 M-7.0506166217417,-9.959873233571013 L-7.051122979501226,-9.960497975554803 C-6.952489250843577,-10.494684918777548 -6.731851013434971,-10.984966726557595 -6.419181049896068,-11.402230771887663 M-6.419676670423408,-11.40033260342992 L-6.419746309638247,-11.400398794761463 C-6.279989698569814,-11.616781861145387 -6.036720043598683,-11.760000000000025 -5.759999999999996,-11.760000000000025 C-5.4832685878091905,-11.760000000000025 -5.239990312811827,-11.61677009313589 -5.100270912732816,-11.40042546108233 M-5.101261222478676,-11.402093338415478 L-5.101143644899304,-11.402279742692802 C-4.788210576546902,-10.984649246983182 -4.567499798086196,-10.494008179613243 -4.4693623743103466,-9.96156776098953 M-4.470443033965422,-9.961773060559548 L-4.469733753092413,-9.965147094534867 C-4.371483336365976,-9.504995707328192 -4.3199999999999985,-9.02967014241139 -4.3199999999999985,-8.542320000000025 C-4.3199999999999985,-8.534851110319673 -4.320012091956556,-8.527385044867101 -4.320035873067301,-8.520040823335231 M-4.320041254904504,-8.521317295123355 L-4.320040816580935,-8.521444550190203 C-4.320013468748076,-8.513442122506362 -4.3199999999999985,-8.505562634150527 -4.3199999999999985,-8.497680000000026 C-4.3199999999999985,-8.010033203770666 -4.371546032055502,-7.534425628398765 -4.469061204950643,-7.078001785378587 M-4.4697814893605585,-7.079532949292114 L-4.469274629526247,-7.078907638836082 C-4.567848627835602,-6.545567979973444 -4.788042364347369,-6.05601345990513 -5.100020984556275,-5.639219310999459 M-7.19995874509549,-8.518682704876696 L-7.199959183419059,-8.518555449809849 C-7.199986531251916,-8.526557877493694 -7.199999999999996,-8.534437365849525 -7.199999999999996,-8.542320000000025 C-7.199999999999996,-9.030376620639071 -7.148367291689858,-9.506373776096682 -7.050691968386772,-9.963154717265711 M-7.049556966034574,-7.078226939440507 L-7.050266246907583,-7.074852905465189 C-7.14851666363402,-7.535004292671862 -7.199999999999996,-8.01032985758866 -7.199999999999996,-8.497680000000026 C-7.199999999999996,-8.505604703561847 -7.199986387103573,-8.51352622766135 -7.19995961551386,-8.521318443309426" style="stroke:#a0a0a4;stroke-width:0.25;"/>
                <path d="M-2.159999999999996,-11.760000000000025 L-2.159999999999996,-11.400000000000025" style="stroke:#a0a0a4;stroke-width:0.25;"/>
                <path d="M2.099973308187606,-5.640128041330854 L2.1000433200428668,-5.6400614547306684 C1.960334452474337,-5.42342118478347 1.7169161325097895,-5.280000000000025 1.4400000000000033,-5.280000000000025 C1.1632685878091975,-5.280000000000025 0.9199903128118321,-5.423229906864159 0.7802709127328227,-5.639574538917719 M0.7809732224786841,-5.637906661584572 L0.78085564489931,-5.637720257307247 C0.4679225765469097,-6.05535075301687 0.24721179808620364,-6.545991820386808 0.14907437431035775,-7.078432239010523 M0.1493833782583016,-9.959873233571013 L0.14887702049877505,-9.960497975554803 C0.2475107491564208,-10.494684918777548 0.46814898656502835,-10.984966726557595 0.7808189501039335,-11.402230771887663 M0.7803233295765912,-11.40033260342992 L0.7802536903617521,-11.400398794761463 C0.9200103014301837,-11.616781861145387 1.1632799564013168,-11.760000000000025 1.4400000000000033,-11.760000000000025 C1.716731412190809,-11.760000000000025 1.960009687188171,-11.61677009313589 2.099729087267184,-11.40042546108233 M2.098738777521325,-11.402093338415478 L2.0988563551006956,-11.402279742692802 C2.4117894234530994,-10.984649246983182 2.6325002019138055,-10.494008179613243 2.7306376256896514,-9.96156776098953 M2.7295569660345778,-9.961773060559548 L2.7302662469075885,-9.965147094534867 C2.828516663634025,-9.504995707328192 2.880000000000005,-9.02967014241139 2.880000000000005,-8.542320000000025 C2.880000000000005,-8.534851110319673 2.879987908043445,-8.527385044867101 2.8799641269327005,-8.520040823335231 M2.879958745095499,-8.521317295123355 L2.8799591834190665,-8.521444550190203 C2.8799865312519253,-8.513442122506362 2.880000000000005,-8.505562634150527 2.880000000000005,-8.497680000000026 C2.880000000000005,-8.010033203770666 2.828453967944496,-7.534425628398765 2.7309387950493567,-7.078001785378587 M2.730218510639441,-7.079532949292114 L2.730725370473755,-7.078907638836082 C2.6321513721643996,-6.545567979973444 2.4119576356526324,-6.05601345990513 2.0999790154437243,-5.639219310999459 M0.0000412549045114579,-8.518682704876696 L0.00004081658094024103,-8.518555449809849 C0.000013468748081503712,-8.526557877493694 2e-15,-8.534437365849525 2e-15,-8.542320000000025 C2e-15,-9.030376620639071 0.05163270831014288,-9.506373776096682 0.1493080316132256,-9.963154717265711 M0.15044303396542547,-7.078226939440507 L0.14973375309241832,-7.074852905465189 C0.05148333636598168,-7.535004292671862 2e-15,-8.01032985758866 2e-15,-8.497680000000026 C2e-15,-8.505604703561847 0.000013612896426319843,-8.51352622766135 0.00004038448614296524,-8.521318443309426" style="stroke:#a0a0a4;stroke-width:0.25;"/>
                <path d="M7.139973308187608,-5.640128041330854 L7.140043320042869,-5.6400614547306684 C7.000334452474339,-5.42342118478347 6.756916132509792,-5.280000000000025 6.480000000000006,-5.280000000000025 C6.2032685878092,-5.280000000000025 5.959990312811835,-5.423229906864159 5.820270912732825,-5.639574538917719 M5.820973222478683,-5.637906661584572 L5.8208556448993125,-5.637720257307247 C5.507922576546909,-6.05535075301687 5.287211798086203,-6.545991820386808 5.189074374310357,-7.078432239010523 M5.1893833782583005,-9.959873233571013 L5.1888770204987775,-9.960497975554803 C5.287510749156423,-10.494684918777548 5.508148986565031,-10.984966726557595 5.820818950103936,-11.402230771887663 M5.820323329576594,-11.40033260342992 L5.8202536903617546,-11.400398794761463 C5.960010301430186,-11.616781861145387 6.203279956401316,-11.760000000000025 6.480000000000006,-11.760000000000025 C6.7567314121908115,-11.760000000000025 7.000009687188177,-11.61677009313589 7.139729087267186,-11.40042546108233 M7.138738777521324,-11.402093338415478 L7.138856355100698,-11.402279742692802 C7.451789423453102,-10.984649246983182 7.672500201913804,-10.494008179613243 7.770637625689654,-9.96156776098953 M7.76955696603458,-9.961773060559548 L7.770266246907587,-9.965147094534867 C7.868516663634027,-9.504995707328192 7.9200000000000035,-9.02967014241139 7.9200000000000035,-8.542320000000025 C7.9200000000000035,-8.534851110319673 7.919987908043447,-8.527385044867101 7.919964126932703,-8.520040823335231 M7.919958745095498,-8.521317295123355 L7.919959183419065,-8.521444550190203 C7.919986531251924,-8.513442122506362 7.9200000000000035,-8.505562634150527 7.9200000000000035,-8.497680000000026 C7.9200000000000035,-8.010033203770666 7.8684539679444985,-7.534425628398765 7.770938795049359,-7.078001785378587 M7.7702185106394435,-7.079532949292114 L7.770725370473754,-7.078907638836082 C7.672151372164398,-6.545567979973444 7.451957635652631,-6.05601345990513 7.139979015443723,-5.639219310999459 M5.040041254904514,-8.518682704876696 L5.040040816580943,-8.518555449809849 C5.040013468748084,-8.526557877493694 5.0400000000000045,-8.534437365849525 5.0400000000000045,-8.542320000000025 C5.0400000000000045,-9.030376620639071 5.091632708310142,-9.506373776096682 5.189308031613228,-9.963154717265711 M5.190443033965424,-7.078226939440507 L5.189733753092421,-7.074852905465189 C5.091483336365984,-7.535004292671862 5.0400000000000045,-8.01032985758866 5.0400000000000045,-8.497680000000026 C5.0400000000000045,-8.505604703561847 5.040013612896429,-8.51352622766135 5.040040384486145,-8.521318443309426" style="stroke:#a0a0a4;stroke-width:0.25;"/>
                <path d="M12.179973308187604,-5.640128041330854 L12.180043320042868,-5.6400614547306684 C12.040334452474331,-5.42342118478347 11.796916132509791,-5.280000000000025 11.520000000000001,-5.280000000000025 C11.243268587809192,-5.280000000000025 10.999990312811834,-5.423229906864159 10.86027091273282,-5.639574538917719 M10.860973222478682,-5.637906661584572 L10.860855644899308,-5.637720257307247 C10.547922576546904,-6.05535075301687 10.327211798086198,-6.545991820386808 10.229074374310356,-7.078432239010523 M10.2293833782583,-9.959873233571013 L10.228877020498773,-9.960497975554803 C10.327510749156419,-10.494684918777548 10.54814898656503,-10.984966726557595 10.860818950103935,-11.402230771887663 M10.86032332957659,-11.40033260342992 L10.86025369036175,-11.400398794761463 C11.000010301430185,-11.616781861145387 11.243279956401315,-11.760000000000025 11.520000000000001,-11.760000000000025 C11.796731412190804,-11.760000000000025 12.040009687188169,-11.61677009313589 12.179729087267182,-11.40042546108233 M12.178738777521323,-11.402093338415478 L12.178856355100693,-11.402279742692802 C12.491789423453097,-10.984649246983182 12.712500201913803,-10.494008179613243 12.81063762568965,-9.96156776098953 M12.809556966034576,-9.961773060559548 L12.810266246907583,-9.965147094534867 C12.908516663634027,-9.504995707328192 12.960000000000003,-9.02967014241139 12.960000000000003,-8.542320000000025 C12.960000000000003,-8.534851110319673 12.95998790804344,-8.527385044867101 12.959964126932695,-8.520040823335231 M12.959958745095497,-8.521317295123355 L12.959959183419064,-8.521444550190203 C12.959986531251923,-8.513442122506362 12.960000000000003,-8.505562634150527 12.960000000000003,-8.497680000000026 C12.960000000000003,-8.010033203770666 12.908453967944494,-7.534425628398765 12.810938795049351,-7.078001785378587 M12.810218510639436,-7.079532949292114 L12.810725370473753,-7.078907638836082 C12.712151372164394,-6.545567979973444 12.49195763565263,-6.05601345990513 12.179979015443722,-5.639219310999459 M10.08004125490451,-8.518682704876696 L10.080040816580938,-8.518555449809849 C10.08001346874808,-8.526557877493694 10.08,-8.534437365849525 10.08,-8.542320000000025 C10.08,-9.030376620639071 10.131632708310137,-9.506373776096682 10.229308031613227,-9.963154717265711 M10.230443033965424,-7.078226939440507 L10.229733753092416,-7.074852905465189 C10.13148333636598,-7.535004292671862 10.08,-8.01032985758866 10.08,-8.497680000000026 C10.08,-8.505604703561847 10.080013612896424,-8.51352622766135 10.080040384486141,-8.521318443309426" style="stroke:#a0a0a4;stroke-width:0.25;"/>
                <path d="M17.219973308187605,-5.640128041330854 L17.22004332004287,-5.6400614547306684 C17.080334452474332,-5.42342118478347 16.836916132509792,-5.280000000000025 16.560000000000002,-5.280000000000025 C16.283268587809197,-5.280000000000025 16.039990312811838,-5.423229906864159 15.90027091273282,-5.639574538917719 M15.900973222478681,-5.637906661584572 L15.900855644899307,-5.637720257307247 C15.587922576546907,-6.05535075301687 15.3672117980862,-6.545991820386808 15.269074374310355,-7.078432239010523 M15.269383378258295,-9.959873233571013 L15.268877020498776,-9.960497975554803 C15.367510749156422,-10.494684918777548 15.58814898656503,-10.984966726557595 15.90081895010393,-11.402230771887663 M15.900323329576585,-11.40033260342992 L15.90025369036175,-11.400398794761463 C16.040010301430186,-11.616781861145387 16.283279956401316,-11.760000000000025 16.560000000000002,-11.760000000000025 C16.836731412190808,-11.760000000000025 17.080009687188173,-11.61677009313589 17.219729087267183,-11.40042546108233 M17.218738777521324,-11.402093338415478 L17.21885635510069,-11.402279742692802 C17.531789423453098,-10.984649246983182 17.752500201913804,-10.494008179613243 17.85063762568965,-9.96156776098953 M17.849556966034577,-9.961773060559548 L17.850266246907587,-9.965147094534867 C17.948516663634024,-9.504995707328192 18,-9.02967014241139 18,-8.542320000000025 C18,-8.534851110319673 17.999987908043437,-8.527385044867101 17.999964126932703,-8.520040823335231 M17.999958745095498,-8.521317295123355 L17.999959183419065,-8.521444550190203 C17.99998653125192,-8.513442122506362 18,-8.505562634150527 18,-8.497680000000026 C18,-8.010033203770666 17.948453967944495,-7.534425628398765 17.850938795049352,-7.078001785378587 M17.850218510639436,-7.079532949292114 L17.850725370473754,-7.078907638836082 C17.75215137216439,-6.545567979973444 17.53195763565263,-6.05601345990513 17.219979015443727,-5.639219310999459 M15.120041254904505,-8.518682704876696 L15.120040816580937,-8.518555449809849 C15.120013468748082,-8.526557877493694 15.120000000000003,-8.534437365849525 15.120000000000003,-8.542320000000025 C15.120000000000003,-9.030376620639071 15.171632708310133,-9.506373776096682 15.269308031613226,-9.963154717265711 M15.27044303396542,-7.078226939440507 L15.269733753092416,-7.074852905465189 C15.171483336365979,-7.535004292671862 15.120000000000003,-8.01032985758866 15.120000000000003,-8.497680000000026 C15.120000000000003,-8.505604703561847 15.120013612896427,-8.51352622766135 15.120040384486137,-8.521318443309426" style="stroke:#a0a0a4;stroke-width:0.25;"/>
            </g>
            <path d="M-225,-9.009999999999959 L-225,-21.48 M225,-9.010000000000005 L225,-21.480000000000047 M-225,-15 L225,-15.000000000000046 " style="stroke:#a0a0a4;stroke-width:0.25;"/>
        </g>
        <!-- Rotated Dimension -->
        <g>
            <path d="M-225,0 L-225.18,-0.02997249535964451 L-225.18,0.02997249535964451 Z" style="stroke:#a0a0a4;stroke-width:0.25;fill:#a0a0a4;fill-rule:evenodd;"/>
            <path d="M-225,0 L-224.82,0.029972495359644497 L-224.82,-0.029972495359644538 Z" style="stroke:#a0a0a4;stroke-width:0.25;fill:#a0a0a4;fill-rule:evenodd;"/>
            <g>
                <path d="M-225.2916674081059,0.25999644329636573 L-225.29166546333215,0.25999829292414867 C-225.29554626520905,0.2660160782004598 -225.30230788520805,0.2699999999999999 -225.31,0.2699999999999999 C-225.31768698367196,0.2699999999999999 -225.324444713533,0.26602139147599624 -225.32832580797964,0.26001181836339726 M-225.32830629937558,0.26005814828931806 L-225.32830956541946,0.26006332618591044 C-225.33700215065147,0.24846247908286534 -225.3431330056087,0.2348335605448115 -225.34585904515805,0.22004354891637498 M-225.34585046171506,0.14000352128969468 L-225.34586452720836,0.1399861673457005 C-225.34312470141234,0.12514764114506868 -225.3369958614843,0.11152870204006744 -225.32831058471933,0.0999380341142322 M-225.3283243519562,0.09999076101583618 L-225.32832628637885,0.09998892236773772 C-225.3244441582936,0.09397828163485095 -225.31768666787775,0.08999999999999991 -225.31,0.08999999999999991 C-225.30231301632804,0.08999999999999991 -225.295555286467,0.09397860852400364 -225.29167419202037,0.09998818163660253 M-225.2917017006244,0.09994185171068178 L-225.29169843458052,0.09993667381408944 C-225.2830058493485,0.11153752091713447 -225.27687499439128,0.1251664394551883 -225.27414895484196,0.13995645108362478 M-225.2741789731657,0.13995074831779097 L-225.27415927091923,0.13985702515180987 C-225.27143009267684,0.15263900812977305 -225.27,0.16584249604412862 -225.27,0.17937999999999993 C-225.27,0.17958746915778745 -225.2700003358877,0.17979485986480334 -225.2700009964741,0.1799988660184664 M-225.27000114596956,0.1799634084687963 L-225.27000113379393,0.1799598736058283 C-225.27000037413188,0.18018216326371278 -225.27,0.18040103794026374 -225.27,0.1806199999999999 C-225.27,0.19416574433970435 -225.27143183422376,0.20737706587781268 -225.27414058902642,0.22005550596170653 M-225.2741605969267,0.22001297363077524 L-225.27414651748683,0.22003034336566502 C-225.27688468410653,0.23484533388962717 -225.28300117678742,0.24844407055819143 -225.29166724957102,0.26002168580557117 M-225.34999885403042,0.1800365915312035 L-225.34999886620608,0.18004012639417144 C-225.34999962586812,0.17981783673628687 -225.35,0.17959896205973602 -225.35,0.17937999999999993 C-225.35,0.16582287164891532 -225.3485657581025,0.15260072844175945 -225.3458525546774,0.13991236896484197 M-225.3458210268343,0.22004925168220874 L-225.34584072908078,0.22014297484818982 C-225.34856990732317,0.20736099187022666 -225.35,0.19415750395587114 -225.35,0.1806199999999999 C-225.35,0.18039986934550487 -225.349999621864,0.18017982700940754 -225.3499988782087,0.17996337657473876" style="stroke:#a0a0a4;stroke-width:0.25;"/>
                <path d="M-225.21,0.08999999999999991 L-225.21,0.09999999999999991" style="stroke:#a0a0a4;stroke-width:0.25;"/>
                <path d="M-225.0916674081059,0.25999644329636573 L-225.09166546333213,0.25999829292414867 C-225.09554626520904,0.2660160782004598 -225.10230788520806,0.2699999999999999 -225.11,0.2699999999999999 C-225.11768698367197,0.2699999999999999 -225.124444713533,0.26602139147599624 -225.12832580797965,0.26001181836339726 M-225.1283062993756,0.26005814828931806 L-225.12830956541947,0.26006332618591044 C-225.13700215065148,0.24846247908286534 -225.14313300560872,0.2348335605448115 -225.14585904515803,0.22004354891637498 M-225.14585046171504,0.14000352128969468 L-225.14586452720837,0.1399861673457005 C-225.14312470141232,0.12514764114506868 -225.1369958614843,0.11152870204006744 -225.12831058471934,0.0999380341142322 M-225.1283243519562,0.09999076101583618 L-225.12832628637884,0.09998892236773772 C-225.1244441582936,0.09397828163485095 -225.11768666787773,0.08999999999999991 -225.11,0.08999999999999991 C-225.10231301632803,0.08999999999999991 -225.095555286467,0.09397860852400364 -225.09167419202035,0.09998818163660253 M-225.0917017006244,0.09994185171068178 L-225.09169843458054,0.09993667381408944 C-225.08300584934852,0.11153752091713447 -225.0768749943913,0.1251664394551883 -225.07414895484195,0.13995645108362478 M-225.07417897316571,0.13995074831779097 L-225.07415927091924,0.13985702515180987 C-225.07143009267682,0.15263900812977305 -225.07,0.16584249604412862 -225.07,0.17937999999999993 C-225.07,0.17958746915778745 -225.07000033588767,0.17979485986480334 -225.07000099647408,0.1799988660184664 M-225.07000114596957,0.1799634084687963 L-225.0700011337939,0.1799598736058283 C-225.0700003741319,0.18018216326371278 -225.07,0.18040103794026374 -225.07,0.1806199999999999 C-225.07,0.19416574433970435 -225.07143183422377,0.20737706587781268 -225.0741405890264,0.22005550596170653 M-225.07416059692667,0.22001297363077524 L-225.07414651748684,0.22003034336566502 C-225.07688468410655,0.23484533388962717 -225.08300117678743,0.24844407055819143 -225.091667249571,0.26002168580557117 M-225.14999885403043,0.1800365915312035 L-225.1499988662061,0.18004012639417144 C-225.1499996258681,0.17981783673628687 -225.15,0.17959896205973602 -225.15,0.17937999999999993 C-225.15,0.16582287164891532 -225.1485657581025,0.15260072844175945 -225.14585255467742,0.13991236896484197 M-225.14582102683428,0.22004925168220874 L-225.14584072908076,0.22014297484818982 C-225.14856990732318,0.20736099187022666 -225.15,0.19415750395587114 -225.15,0.1806199999999999 C-225.15,0.18039986934550487 -225.149999621864,0.18017982700940754 -225.14999887820872,0.17996337657473876" style="stroke:#a0a0a4;stroke-width:0.25;"/>
                <path d="M-224.9516674081059,0.25999644329636573 L-224.95166546333215,0.25999829292414867 C-224.95554626520905,0.2660160782004598 -224.96230788520805,0.2699999999999999 -224.97,0.2699999999999999 C-224.97768698367196,0.2699999999999999 -224.984444713533,0.26602139147599624 -224.98832580797963,0.26001181836339726 M-224.98830629937558,0.26005814828931806 L-224.98830956541946,0.26006332618591044 C-224.99700215065147,0.24846247908286534 -225.0031330056087,0.2348335605448115 -225.00585904515805,0.22004354891637498 M-225.00585046171506,0.14000352128969468 L-225.00586452720836,0.1399861673457005 C-225.00312470141233,0.12514764114506868 -224.9969958614843,0.11152870204006744 -224.98831058471933,0.0999380341142322 M-224.9883243519562,0.09999076101583618 L-224.98832628637885,0.09998892236773772 C-224.9844441582936,0.09397828163485095 -224.97768666787775,0.08999999999999991 -224.97,0.08999999999999991 C-224.96231301632804,0.08999999999999991 -224.955555286467,0.09397860852400364 -224.95167419202036,0.09998818163660253 M-224.9517017006244,0.09994185171068178 L-224.95169843458055,0.09993667381408944 C-224.94300584934854,0.11153752091713447 -224.93687499439127,0.1251664394551883 -224.93414895484196,0.13995645108362478 M-224.9341789731657,0.13995074831779097 L-224.93415927091922,0.13985702515180987 C-224.93143009267683,0.15263900812977305 -224.93,0.16584249604412862 -224.93,0.17937999999999993 C-224.93,0.17958746915778745 -224.93000033588768,0.17979485986480334 -224.9300009964741,0.1799988660184664 M-224.93000114596958,0.1799634084687963 L-224.93000113379392,0.1799598736058283 C-224.93000037413188,0.18018216326371278 -224.93,0.18040103794026374 -224.93,0.1806199999999999 C-224.93,0.19416574433970435 -224.93143183422376,0.20737706587781268 -224.9341405890264,0.22005550596170653 M-224.9341605969267,0.22001297363077524 L-224.93414651748685,0.22003034336566502 C-224.93688468410653,0.23484533388962717 -224.94300117678742,0.24844407055819143 -224.95166724957102,0.26002168580557117 M-225.00999885403044,0.1800365915312035 L-225.00999886620608,0.18004012639417144 C-225.00999962586812,0.17981783673628687 -225.01,0.17959896205973602 -225.01,0.17937999999999993 C-225.01,0.16582287164891532 -225.0085657581025,0.15260072844175945 -225.0058525546774,0.13991236896484197 M-225.0058210268343,0.22004925168220874 L-225.00584072908077,0.22014297484818982 C-225.00856990732316,0.20736099187022666 -225.01,0.19415750395587114 -225.01,0.1806199999999999 C-225.01,0.18039986934550487 -225.00999962186398,0.18017982700940754 -225.0099988782087,0.17996337657473876" style="stroke:#a0a0a4;stroke-width:0.25;"/>
                <path d="M-224.8116674081059,0.25999644329636573 L-224.81166546333213,0.25999829292414867 C-224.81554626520904,0.2660160782004598 -224.82230788520806,0.2699999999999999 -224.83,0.2699999999999999 C-224.83768698367197,0.2699999999999999 -224.844444713533,0.26602139147599624 -224.84832580797965,0.26001181836339726 M-224.8483062993756,0.26005814828931806 L-224.84830956541947,0.26006332618591044 C-224.85700215065148,0.24846247908286534 -224.86313300560872,0.2348335605448115 -224.86585904515803,0.22004354891637498 M-224.86585046171504,0.14000352128969468 L-224.86586452720837,0.1399861673457005 C-224.86312470141232,0.12514764114506868 -224.8569958614843,0.11152870204006744 -224.84831058471934,0.0999380341142322 M-224.8483243519562,0.09999076101583618 L-224.84832628637884,0.09998892236773772 C-224.8444441582936,0.09397828163485095 -224.83768666787773,0.08999999999999991 -224.83,0.08999999999999991 C-224.82231301632802,0.08999999999999991 -224.815555286467,0.09397860852400364 -224.81167419202035,0.09998818163660253 M-224.8117017006244,0.09994185171068178 L-224.81169843458053,0.09993667381408944 C-224.80300584934852,0.11153752091713447 -224.7968749943913,0.1251664394551883 -224.79414895484194,0.13995645108362478 M-224.7941789731657,0.13995074831779097 L-224.79415927091924,0.13985702515180987 C-224.79143009267682,0.15263900812977305 -224.79,0.16584249604412862 -224.79,0.17937999999999993 C-224.79,0.17958746915778745 -224.79000033588767,0.17979485986480334 -224.7900009964741,0.1799988660184664 M-224.79000114596957,0.1799634084687963 L-224.7900011337939,0.1799598736058283 C-224.7900003741319,0.18018216326371278 -224.79,0.18040103794026374 -224.79,0.1806199999999999 C-224.79,0.19416574433970435 -224.79143183422377,0.20737706587781268 -224.7941405890264,0.22005550596170653 M-224.79416059692667,0.22001297363077524 L-224.79414651748684,0.22003034336566502 C-224.79688468410654,0.23484533388962717 -224.80300117678743,0.24844407055819143 -224.811667249571,0.26002168580557117 M-224.86999885403043,0.1800365915312035 L-224.8699988662061,0.18004012639417144 C-224.8699996258681,0.17981783673628687 -224.87,0.17959896205973602 -224.87,0.17937999999999993 C-224.87,0.16582287164891532 -224.8685657581025,0.15260072844175945 -224.86585255467742,0.13991236896484197 M-224.86582102683428,0.22004925168220874 L-224.86584072908076,0.22014297484818982 C-224.86856990732318,0.20736099187022666 -224.87,0.19415750395587114 -224.87,0.1806199999999999 C-224.87,0.18039986934550487 -224.869999621864,0.18017982700940754 -224.86999887820872,0.17996337657473876" style="stroke:#a0a0a4;stroke-width:0.25;"/>
                <path d="M-224.6716674081059,0.25999644329636573 L-224.67166546333215,0.25999829292414867 C-224.67554626520905,0.2660160782004598 -224.68230788520808,0.2699999999999999 -224.69,0.2699999999999999 C-224.69768698367196,0.2699999999999999 -224.704444713533,0.26602139147599624 -224.70832580797963,0.26001181836339726 M-224.70830629937558,0.26005814828931806 L-224.70830956541946,0.26006332618591044 C-224.71700215065147,0.24846247908286534 -224.72313300560873,0.2348335605448115 -224.72585904515805,0.22004354891637498 M-224.72585046171505,0.14000352128969468 L-224.72586452720836,0.1399861673457005 C-224.72312470141233,0.12514764114506868 -224.7169958614843,0.11152870204006744 -224.70831058471933,0.0999380341142322 M-224.7083243519562,0.09999076101583618 L-224.70832628637885,0.09998892236773772 C-224.7044441582936,0.09397828163485095 -224.69768666787775,0.08999999999999991 -224.69,0.08999999999999991 C-224.68231301632804,0.08999999999999991 -224.675555286467,0.09397860852400364 -224.67167419202036,0.09998818163660253 M-224.6717017006244,0.09994185171068178 L-224.67169843458055,0.09993667381408944 C-224.66300584934854,0.11153752091713447 -224.65687499439127,0.1251664394551883 -224.65414895484196,0.13995645108362478 M-224.6541789731657,0.13995074831779097 L-224.65415927091922,0.13985702515180987 C-224.65143009267683,0.15263900812977305 -224.65,0.16584249604412862 -224.65,0.17937999999999993 C-224.65,0.17958746915778745 -224.65000033588768,0.17979485986480334 -224.6500009964741,0.1799988660184664 M-224.65000114596958,0.1799634084687963 L-224.65000113379392,0.1799598736058283 C-224.65000037413188,0.18018216326371278 -224.65,0.18040103794026374 -224.65,0.1806199999999999 C-224.65,0.19416574433970435 -224.65143183422376,0.20737706587781268 -224.6541405890264,0.22005550596170653 M-224.6541605969267,0.22001297363077524 L-224.65414651748685,0.22003034336566502 C-224.65688468410656,0.23484533388962717 -224.66300117678742,0.24844407055819143 -224.67166724957102,0.26002168580557117 M-224.72999885403044,0.1800365915312035 L-224.72999886620607,0.18004012639417144 C-224.72999962586812,0.17981783673628687 -224.73,0.17959896205973602 -224.73,0.17937999999999993 C-224.73,0.16582287164891532 -224.7285657581025,0.15260072844175945 -224.7258525546774,0.13991236896484197 M-224.7258210268343,0.22004925168220874 L-224.72584072908077,0.22014297484818982 C-224.72856990732316,0.20736099187022666 -224.73,0.19415750395587114 -224.73,0.1806199999999999 C-224.73,0.18039986934550487 -224.72999962186398,0.18017982700940754 -224.72999887820873,0.17996337657473876" style="stroke:#a0a0a4;stroke-width:0.25;"/>
            </g>
            <path d="M-225.36,4.4087284769304716e-17 L-224.64,-4.4087284769304716e-17 M-225,99.9375 L-225,-0.18 " style="stroke:#a0a0a4;stroke-width:0.25;"/>
        </g>
        <!-- Aligned Dimension -->
        <g>
            <path d="M-250,100 L-248.9209901670528,93.52 L-251.0790098329472,93.52 Z" style="stroke:#a0a0a4;stroke-width:0.25;fill:#a0a0a4;fill-rule:evenodd;"/>
            <path d="M-250,3.061616997868383e-15 L-251.0790098329472,6.480000000000002 L-248.9209901670528,6.480000000000002 Z" style="stroke:#a0a0a4;stroke-width:0.25;fill:#a0a0a4;fill-rule:evenodd;"/>
            <g>
                <path d="M-258.28000000000003,33.08 L-259.72,34.52 L-253.24,34.52" style="stroke:#a0a0a4;stroke-width:0.25;"/>
                <path d="M-259.3598719586692,38.77997330818761 L-259.35993854526936,38.780043320042864 C-259.5765788152166,38.640334452474335 -259.72,38.39691613250979 -259.72,38.120000000000005 C-259.72,37.84326858780919 -259.57677009313585,37.59999031281183 -259.3604254610823,37.460270912732824 M-259.36209333841543,37.460973222478685 L-259.3622797426928,37.46085564489931 C-258.94464924698315,37.147922576546904 -258.4540081796132,36.927211798086205 -257.9215677609895,36.82907437431035 M-255.040126766429,36.8293833782583 L-255.03950202444523,36.82887702049877 C-254.50531508122248,36.92751074915642 -254.01503327344244,37.148148986565026 -253.59776922811238,37.46081895010393 M-253.5996673965701,37.46032332957659 L-253.59960120523857,37.46025369036175 C-253.38321813885466,37.60001030143018 -253.24,37.84327995640132 -253.24,38.120000000000005 C-253.24,38.39673141219081 -253.38322990686413,38.64000968718817 -253.5995745389177,38.779729087267185 M-253.59790666158455,38.778738777521326 L-253.59772025730723,38.77885635510069 C-254.01535075301686,39.09178942345309 -254.50599182038678,39.31250020191381 -255.03843223901052,39.41063762568965 M-255.03822693944048,39.40955696603458 L-255.03485290546516,39.41026624690758 C-255.49500429267184,39.508516663634026 -255.97032985758864,39.56 -256.45768,39.56 C-256.46514888968034,39.56 -256.47261495513294,39.55998790804344 -256.4799591766648,39.5599641269327 M-256.4786827048767,39.55995874509549 L-256.47855544980985,39.55995918341907 C-256.4865578774937,39.55998653125192 -256.4944373658495,39.56 -256.50232,39.56 C-256.9899667962294,39.56 -257.4655743716013,39.50845396794449 -257.92199821462145,39.410938795049354 M-257.92046705070794,39.41021851063944 L-257.92109236116397,39.410725370473756 C-258.4544320200266,39.312151372164394 -258.9439865400949,39.09195763565263 -259.3607806890006,38.77997901544372 M-256.48131729512335,36.68004125490451 L-256.4814445501902,36.68004081658094 C-256.47344212250636,36.68001346874808 -256.4655626341505,36.68 -256.45768,36.68 C-255.96962337936097,36.68 -255.49362622390336,36.731632708310144 -255.03684528273433,36.82930803161322 M-257.92177306055953,36.83044303396542 L-257.92514709453485,36.82973375309241 C-257.46499570732817,36.73148333636598 -256.9896701424114,36.68 -256.50232,36.68 C-256.4943952964382,36.68 -256.4864737723387,36.680013612896424 -256.4786815566906,36.68004038448614" style="stroke:#a0a0a4;stroke-width:0.25;"/>
                <path d="M-259.3598719586692,43.819973308187606 L-259.35993854526936,43.82004332004286 C-259.5765788152166,43.680334452474334 -259.72,43.436916132509786 -259.72,43.16 C-259.72,42.8832685878092 -259.57677009313585,42.63999031281183 -259.3604254610823,42.50027091273282 M-259.36209333841543,42.50097322247868 L-259.3622797426928,42.50085564489931 C-258.94464924698315,42.1879225765469 -258.4540081796132,41.9672117980862 -257.9215677609895,41.86907437431035 M-255.040126766429,41.8693833782583 L-255.03950202444523,41.86887702049877 C-254.50531508122248,41.96751074915642 -254.01503327344244,42.188148986565025 -253.59776922811238,42.500818950103934 M-253.5996673965701,42.50032332957659 L-253.59960120523857,42.50025369036175 C-253.38321813885466,42.64001030143018 -253.24,42.88327995640131 -253.24,43.16 C-253.24,43.43673141219081 -253.38322990686413,43.680009687188175 -253.5995745389177,43.81972908726718 M-253.59790666158455,43.81873877752132 L-253.59772025730723,43.81885635510069 C-254.01535075301686,44.1317894234531 -254.50599182038678,44.3525002019138 -255.03843223901052,44.45063762568965 M-255.03822693944048,44.44955696603458 L-255.03485290546516,44.45026624690758 C-255.49500429267184,44.54851666363402 -255.97032985758864,44.6 -256.45768,44.6 C-256.46514888968034,44.6 -256.47261495513294,44.59998790804344 -256.4799591766648,44.5999641269327 M-256.4786827048767,44.59995874509549 L-256.47855544980985,44.59995918341906 C-256.4865578774937,44.59998653125192 -256.4944373658495,44.6 -256.50232,44.6 C-256.9899667962294,44.6 -257.4655743716013,44.548453967944496 -257.92199821462145,44.45093879504935 M-257.92046705070794,44.45021851063944 L-257.92109236116397,44.45072537047375 C-258.4544320200266,44.35215137216439 -258.9439865400949,44.131957635652626 -259.3607806890006,43.81997901544372 M-256.48131729512335,41.72004125490451 L-256.4814445501902,41.72004081658093 C-256.47344212250636,41.72001346874808 -256.4655626341505,41.72 -256.45768,41.72 C-255.96962337936097,41.72 -255.49362622390336,41.771632708310136 -255.03684528273433,41.86930803161322 M-257.92177306055953,41.87044303396542 L-257.92514709453485,41.86973375309242 C-257.46499570732817,41.771483336365975 -256.9896701424114,41.72 -256.50232,41.72 C-256.4943952964382,41.72 -256.4864737723387,41.72001361289642 -256.4786815566906,41.72004038448614" style="stroke:#a0a0a4;stroke-width:0.25;"/>
                <path d="M-253.24,46.760000000000005 L-253.60000000000002,46.760000000000005" style="stroke:#a0a0a4;stroke-width:0.25;"/>
                <path d="M-259.3598719586692,51.0199733081876 L-259.35993854526936,51.020043320042866 C-259.5765788152166,50.88033445247434 -259.72,50.63691613250978 -259.72,50.36 C-259.72,50.0832685878092 -259.57677009313585,49.839990312811835 -259.3604254610823,49.70027091273282 M-259.36209333841543,49.70097322247868 L-259.3622797426928,49.700855644899306 C-258.94464924698315,49.387922576546906 -258.4540081796132,49.1672117980862 -257.9215677609895,49.069074374310354 M-255.040126766429,49.0693833782583 L-255.03950202444523,49.068877020498775 C-254.50531508122248,49.16751074915642 -254.01503327344244,49.38814898656503 -253.59776922811238,49.70081895010393 M-253.5996673965701,49.70032332957659 L-253.59960120523857,49.70025369036175 C-253.38321813885466,49.84001030143018 -253.24,50.08327995640131 -253.24,50.36 C-253.24,50.63673141219081 -253.38322990686413,50.88000968718817 -253.5995745389177,51.01972908726718 M-253.59790666158455,51.01873877752132 L-253.59772025730723,51.018856355100695 C-254.01535075301686,51.331789423453095 -254.50599182038678,51.5525002019138 -255.03843223901052,51.650637625689654 M-255.03822693944048,51.64955696603458 L-255.03485290546516,51.650266246907584 C-255.49500429267184,51.74851666363402 -255.97032985758864,51.800000000000004 -256.45768,51.800000000000004 C-256.46514888968034,51.800000000000004 -256.47261495513294,51.79998790804344 -256.4799591766648,51.79996412693269 M-256.4786827048767,51.799958745095495 L-256.47855544980985,51.79995918341906 C-256.4865578774937,51.79998653125192 -256.4944373658495,51.800000000000004 -256.50232,51.800000000000004 C-256.9899667962294,51.800000000000004 -257.4655743716013,51.7484539679445 -257.92199821462145,51.650938795049356 M-257.92046705070794,51.65021851063944 L-257.92109236116397,51.65072537047375 C-258.4544320200266,51.552151372164396 -258.9439865400949,51.33195763565263 -259.3607806890006,51.019979015443724 M-256.48131729512335,48.92004125490451 L-256.4814445501902,48.920040816580936 C-256.47344212250636,48.92001346874808 -256.4655626341505,48.92 -256.45768,48.92 C-255.96962337936097,48.92 -255.49362622390336,48.97163270831014 -255.03684528273433,49.069308031613225 M-257.92177306055953,49.070443033965425 L-257.92514709453485,49.06973375309242 C-257.46499570732817,48.97148333636598 -256.9896701424114,48.92 -256.50232,48.92 C-256.4943952964382,48.92 -256.4864737723387,48.920013612896426 -256.4786815566906,48.92004038448614" style="stroke:#a0a0a4;stroke-width:0.25;"/>
                <path d="M-259.3598719586692,56.05997330818761 L-259.35993854526936,56.060043320042865 C-259.5765788152166,55.920334452474336 -259.72,55.67691613250979 -259.72,55.400000000000006 C-259.72,55.1232685878092 -259.57677009313585,54.879990312811834 -259.3604254610823,54.740270912732825 M-259.36209333841543,54.74097322247869 L-259.3622797426928,54.74085564489931 C-258.94464924698315,54.427922576546905 -258.4540081796132,54.207211798086206 -257.9215677609895,54.10907437431035 M-255.040126766429,54.1093833782583 L-255.03950202444523,54.10887702049878 C-254.50531508122248,54.20751074915643 -254.01503327344244,54.42814898656503 -253.59776922811238,54.74081895010393 M-253.5996673965701,54.74032332957659 L-253.59960120523857,54.740253690361754 C-253.38321813885466,54.88001030143018 -253.24,55.12327995640132 -253.24,55.400000000000006 C-253.24,55.67673141219081 -253.38322990686413,55.92000968718818 -253.5995745389177,56.059729087267186 M-253.59790666158455,56.05873877752133 L-253.59772025730723,56.058856355100694 C-254.01535075301686,56.371789423453095 -254.50599182038678,56.59250020191381 -255.03843223901052,56.690637625689654 M-255.03822693944048,56.68955696603458 L-255.03485290546516,56.69026624690758 C-255.49500429267184,56.78851666363403 -255.97032985758864,56.84 -256.45768,56.84 C-256.46514888968034,56.84 -256.47261495513294,56.83998790804344 -256.4799591766648,56.8399641269327 M-256.4786827048767,56.839958745095494 L-256.47855544980985,56.83995918341907 C-256.4865578774937,56.839986531251924 -256.4944373658495,56.84 -256.50232,56.84 C-256.9899667962294,56.84 -257.4655743716013,56.7884539679445 -257.92199821462145,56.69093879504936 M-257.92046705070794,56.69021851063944 L-257.92109236116397,56.69072537047376 C-258.4544320200266,56.592151372164395 -258.9439865400949,56.371957635652635 -259.3607806890006,56.05997901544372 M-256.48131729512335,53.96004125490451 L-256.4814445501902,53.96004081658094 C-256.47344212250636,53.96001346874809 -256.4655626341505,53.96000000000001 -256.45768,53.96000000000001 C-255.96962337936097,53.96000000000001 -255.49362622390336,54.011632708310145 -255.03684528273433,54.109308031613224 M-257.92177306055953,54.110443033965424 L-257.92514709453485,54.10973375309242 C-257.46499570732817,54.011483336365984 -256.9896701424114,53.96000000000001 -256.50232,53.96000000000001 C-256.4943952964382,53.96000000000001 -256.4864737723387,53.96001361289643 -256.4786815566906,53.96004038448614" style="stroke:#a0a0a4;stroke-width:0.25;"/>
                <path d="M-259.3598719586692,61.0999733081876 L-259.35993854526936,61.10004332004287 C-259.5765788152166,60.96033445247433 -259.72,60.71691613250979 -259.72,60.44 C-259.72,60.16326858780919 -259.57677009313585,59.919990312811834 -259.3604254610823,59.78027091273282 M-259.36209333841543,59.78097322247868 L-259.3622797426928,59.780855644899304 C-258.94464924698315,59.467922576546904 -258.4540081796132,59.2472117980862 -257.9215677609895,59.14907437431035 M-255.040126766429,59.14938337825829 L-255.03950202444523,59.14887702049877 C-254.50531508122248,59.24751074915642 -254.01503327344244,59.468148986565026 -253.59776922811238,59.780818950103935 M-253.5996673965701,59.78032332957659 L-253.59960120523857,59.78025369036175 C-253.38321813885466,59.92001030143018 -253.24,60.16327995640131 -253.24,60.44 C-253.24,60.7167314121908 -253.38322990686413,60.96000968718817 -253.5995745389177,61.09972908726718 M-253.59790666158455,61.09873877752132 L-253.59772025730723,61.09885635510069 C-254.01535075301686,61.411789423453094 -254.50599182038678,61.6325002019138 -255.03843223901052,61.730637625689646 M-255.03822693944048,61.72955696603458 L-255.03485290546516,61.73026624690759 C-255.49500429267184,61.82851666363402 -255.97032985758864,61.88 -256.45768,61.88 C-256.46514888968034,61.88 -256.47261495513294,61.87998790804344 -256.4799591766648,61.8799641269327 M-256.4786827048767,61.87995874509549 L-256.47855544980985,61.87995918341906 C-256.4865578774937,61.879986531251916 -256.4944373658495,61.88 -256.50232,61.88 C-256.9899667962294,61.88 -257.4655743716013,61.82845396794449 -257.92199821462145,61.730938795049354 M-257.92046705070794,61.73021851063943 L-257.92109236116397,61.73072537047375 C-258.4544320200266,61.63215137216439 -258.9439865400949,61.41195763565263 -259.3607806890006,61.09997901544372 M-256.48131729512335,59.0000412549045 L-256.4814445501902,59.000040816580935 C-256.47344212250636,59.00001346874808 -256.4655626341505,59 -256.45768,59 C-255.96962337936097,59 -255.49362622390336,59.05163270831014 -255.03684528273433,59.149308031613224 M-257.92177306055953,59.150443033965416 L-257.92514709453485,59.14973375309242 C-257.46499570732817,59.051483336365976 -256.9896701424114,59 -256.50232,59 C-256.4943952964382,59 -256.4864737723387,59.000013612896424 -256.4786815566906,59.00004038448614" style="stroke:#a0a0a4;stroke-width:0.25;"/>
                <path d="M-259.3598719586692,66.1399733081876 L-259.35993854526936,66.14004332004286 C-259.5765788152166,66.00033445247433 -259.72,65.75691613250979 -259.72,65.48 C-259.72,65.20326858780919 -259.57677009313585,64.95999031281184 -259.3604254610823,64.82027091273282 M-259.36209333841543,64.82097322247868 L-259.3622797426928,64.82085564489931 C-258.94464924698315,64.5079225765469 -258.4540081796132,64.28721179808619 -257.9215677609895,64.18907437431035 M-255.040126766429,64.1893833782583 L-255.03950202444523,64.18887702049878 C-254.50531508122248,64.28751074915641 -254.01503327344244,64.50814898656503 -253.59776922811238,64.82081895010393 M-253.5996673965701,64.82032332957658 L-253.59960120523857,64.82025369036175 C-253.38321813885466,64.96001030143017 -253.24,65.20327995640132 -253.24,65.48 C-253.24,65.7567314121908 -253.38322990686413,66.00000968718817 -253.5995745389177,66.13972908726718 M-253.59790666158455,66.13873877752133 L-253.59772025730723,66.13885635510069 C-254.01535075301686,66.45178942345309 -254.50599182038678,66.6725002019138 -255.03843223901052,66.77063762568964 M-255.03822693944048,66.76955696603457 L-255.03485290546516,66.77026624690758 C-255.49500429267184,66.86851666363403 -255.97032985758864,66.92 -256.45768,66.92 C-256.46514888968034,66.92 -256.47261495513294,66.91998790804344 -256.4799591766648,66.9199641269327 M-256.4786827048767,66.9199587450955 L-256.47855544980985,66.91995918341907 C-256.4865578774937,66.91998653125192 -256.4944373658495,66.92 -256.50232,66.92 C-256.9899667962294,66.92 -257.4655743716013,66.86845396794449 -257.92199821462145,66.77093879504935 M-257.92046705070794,66.77021851063944 L-257.92109236116397,66.77072537047376 C-258.4544320200266,66.6721513721644 -258.9439865400949,66.45195763565263 -259.3607806890006,66.13997901544371 M-256.48131729512335,64.04004125490451 L-256.4814445501902,64.04004081658094 C-256.47344212250636,64.04001346874807 -256.4655626341505,64.03999999999999 -256.45768,64.03999999999999 C-255.96962337936097,64.03999999999999 -255.49362622390336,64.09163270831013 -255.03684528273433,64.18930803161322 M-257.92177306055953,64.19044303396542 L-257.92514709453485,64.18973375309241 C-257.46499570732817,64.09148333636597 -256.9896701424114,64.03999999999999 -256.50232,64.03999999999999 C-256.4943952964382,64.03999999999999 -256.4864737723387,64.04001361289642 -256.4786815566906,64.04004038448613" style="stroke:#a0a0a4;stroke-width:0.25;"/>
            </g>
            <path d="M-227.25,100 L-256.48,100 M-227.25,2.755455298081545e-16 L-256.48,3.8551881237158675e-15 M-250,100 L-250,3.061616997868383e-15 " style="stroke:#a0a0a4;stroke-width:0.25;"/>
        </g>
        <!-- Aligned Dimension -->
        <g>
            <path d="M-152.5,60 L-146.02,61.0790098329472 L-146.02,58.9209901670528 Z" style="stroke:#a0a0a4;stroke-width:0.25;fill:#a0a0a4;fill-rule:evenodd;"/>
            <path d="M-57.5,60 L-63.98,58.9209901670528 L-63.98,61.0790098329472 Z" style="stroke:#a0a0a4;stroke-width:0.25;fill:#a0a0a4;fill-rule:evenodd;"/>
            <g>
                <path d="M-119.39999999999999,63.24020926271803 L-119.3994764569427,63.2396809929332 C-118.10840895545016,63.98687302525714 -117.24,65.38274212655355 -117.24,66.98143900706681 L-117.24,68.28031900706681 C-117.24,69.07560904677881 -117.88470996028799,69.7203190070668 -118.67999999999999,69.7203190070668 C-119.475290039712,69.7203190070668 -120.12,69.07560904677881 -120.12,68.28031900706681 L-120.12,67.56031900706681 C-120.12,66.76502896735481 -119.475290039712,66.12031900706681 -118.67999999999999,66.12031900706681 L-117.32639999999999,66.12031900706681" style="stroke:#a0a0a4;stroke-width:0.25;"/>
                <path d="M-112.2,69.7203190070668 L-115.08,69.7203190070668 L-115.08,66.84031900706681 L-113.64,66.84031900706681 M-112.2,65.40031900706681 C-112.2,66.19560904677881 -112.844709960288,66.84031900706681 -113.64,66.84031900706681 M-112.2,65.40031900706681 L-112.2,64.68031900706681 M-113.64,63.24031900706681 C-112.844709960288,63.24031900706681 -112.2,63.885028967354806 -112.2,64.68031900706681 M-113.64,63.24031900706681 L-115.08,63.24031900706681" style="stroke:#a0a0a4;stroke-width:0.25;"/>
                <path d="M-110.03999999999999,63.24031900706681 L-110.03999999999999,63.60031900706681" style="stroke:#a0a0a4;stroke-width:0.25;"/>
                <path d="M-105.7800266918124,69.36019096573598 L-105.77995667995714,69.36025755233617 C-105.91966554752567,69.57689782228337 -106.16308386749022,69.7203190070668 -106.44,69.7203190070668 C-106.71673141219081,69.7203190070668 -106.96000968718818,69.57708910020267 -107.09972908726718,69.36074446814911 M-107.09902677752132,69.36241234548226 L-107.09914435510069,69.36259874975958 C-107.4120774234531,68.94496825404997 -107.6327882019138,68.45432718668002 -107.73092562568965,67.92188676805631 M-107.7306166217417,65.04044577349582 L-107.73112297950124,65.03982103151203 C-107.63248925084358,64.50563408828928 -107.41185101343497,64.01535228050923 -107.09918104989607,63.59808823517917 M-107.0996766704234,63.59998640363691 L-107.09974630963825,63.59992021230537 C-106.95998969856981,63.383537145921444 -106.71672004359868,63.24031900706681 -106.44,63.24031900706681 C-106.1632685878092,63.24031900706681 -105.91999031281183,63.383548913930944 -105.78027091273282,63.5998935459845 M-105.78126122247868,63.59822566865135 L-105.7811436448993,63.59803926437403 C-105.46821057654691,64.01566976008365 -105.2474997980862,64.50631082745359 -105.14936237431036,65.03875124607731 M-105.15044303396542,65.03854594650728 L-105.14973375309242,65.03517191253196 C-105.05148333636598,65.49532329973864 -105,65.97064886465544 -105,66.4579990070668 C-105,66.46546789674716 -105.00001209195656,66.47293396219973 -105.0000358730673,66.4802781837316 M-105.0000412549045,66.47900171194348 L-105.00004081658093,66.47887445687662 C-105.00001346874808,66.48687688456047 -105,66.4947563729163 -105,66.5026390070668 C-105,66.99028580329617 -105.05154603205551,67.46589337866807 -105.14906120495064,67.92231722168825 M-105.14978148936056,67.92078605777472 L-105.14927462952625,67.92141136823075 C-105.24784862783561,68.4547510270934 -105.46804236434737,68.9443055471617 -105.78002098455627,69.36109969606737 M-107.8799587450955,66.48163630219014 L-107.87995918341906,66.48176355725698 C-107.87998653125192,66.47376112957313 -107.88,66.46588164121731 -107.88,66.4579990070668 C-107.88,65.96994238642776 -107.82836729168986,65.49394523097016 -107.73069196838678,65.03716428980113 M-107.72955696603458,67.92209206762632 L-107.73026624690759,67.92546610160164 C-107.82851666363402,67.46531471439498 -107.88,66.98998914947818 -107.88,66.5026390070668 C-107.88,66.49471430350499 -107.87998638710357,66.48679277940549 -107.87995961551387,66.47900056375741" style="stroke:#a0a0a4;stroke-width:0.25;"/>
                <path d="M-100.7400266918124,69.36019096573598 L-100.73995667995713,69.36025755233617 C-100.87966554752566,69.57689782228337 -101.12308386749021,69.7203190070668 -101.4,69.7203190070668 C-101.6767314121908,69.7203190070668 -101.92000968718817,69.57708910020267 -102.05972908726719,69.36074446814911 M-102.05902677752132,69.36241234548226 L-102.0591443551007,69.36259874975958 C-102.37207742345309,68.94496825404997 -102.5927882019138,68.45432718668002 -102.69092562568964,67.92188676805631 M-102.6906166217417,65.04044577349582 L-102.69112297950123,65.03982103151203 C-102.59248925084358,64.50563408828928 -102.37185101343498,64.01535228050923 -102.05918104989607,63.59808823517917 M-102.05967667042341,63.59998640363691 L-102.05974630963826,63.59992021230537 C-101.91998969856982,63.383537145921444 -101.67672004359869,63.24031900706681 -101.4,63.24031900706681 C-101.12326858780919,63.24031900706681 -100.87999031281183,63.383548913930944 -100.74027091273283,63.5998935459845 M-100.74126122247868,63.59822566865135 L-100.74114364489931,63.59803926437403 C-100.4282105765469,64.01566976008365 -100.2074997980862,64.50631082745359 -100.10936237431035,65.03875124607731 M-100.11044303396542,65.03854594650728 L-100.10973375309241,65.03517191253196 C-100.01148333636598,65.49532329973864 -99.96000000000001,65.97064886465544 -99.96000000000001,66.4579990070668 C-99.96000000000001,66.46546789674716 -99.96001209195656,66.47293396219973 -99.96003587306731,66.4802781837316 M-99.96004125490451,66.47900171194348 L-99.96004081658094,66.47887445687662 C-99.96001346874809,66.48687688456047 -99.96000000000001,66.4947563729163 -99.96000000000001,66.5026390070668 C-99.96000000000001,66.99028580329617 -100.0115460320555,67.46589337866807 -100.10906120495065,67.92231722168825 M-100.10978148936056,67.92078605777472 L-100.10927462952625,67.92141136823075 C-100.2078486278356,68.4547510270934 -100.42804236434738,68.9443055471617 -100.74002098455628,69.36109969606737 M-102.83995874509549,66.48163630219014 L-102.83995918341907,66.48176355725698 C-102.83998653125192,66.47376112957313 -102.84,66.46588164121731 -102.84,66.4579990070668 C-102.84,65.96994238642776 -102.78836729168987,65.49394523097016 -102.69069196838677,65.03716428980113 M-102.68955696603459,67.92209206762632 L-102.69026624690758,67.92546610160164 C-102.78851666363403,67.46531471439498 -102.84,66.98998914947818 -102.84,66.5026390070668 C-102.84,66.49471430350499 -102.83998638710358,66.48679277940549 -102.83995961551386,66.47900056375741" style="stroke:#a0a0a4;stroke-width:0.25;"/>
                <path d="M-95.7000266918124,69.36019096573598 L-95.69995667995714,69.36025755233617 C-95.83966554752567,69.57689782228337 -96.08308386749022,69.7203190070668 -96.36,69.7203190070668 C-96.63673141219081,69.7203190070668 -96.88000968718816,69.57708910020267 -97.01972908726718,69.36074446814911 M-97.01902677752132,69.36241234548226 L-97.01914435510069,69.36259874975958 C-97.3320774234531,68.94496825404997 -97.5527882019138,68.45432718668002 -97.65092562568965,67.92188676805631 M-97.6506166217417,65.04044577349582 L-97.65112297950122,65.03982103151203 C-97.55248925084358,64.50563408828928 -97.33185101343497,64.01535228050923 -97.01918104989608,63.59808823517917 M-97.01967667042341,63.59998640363691 L-97.01974630963825,63.59992021230537 C-96.87998969856982,63.383537145921444 -96.63672004359869,63.24031900706681 -96.36,63.24031900706681 C-96.08326858780919,63.24031900706681 -95.83999031281184,63.383548913930944 -95.70027091273282,63.5998935459845 M-95.70126122247868,63.59822566865135 L-95.7011436448993,63.59803926437403 C-95.38821057654691,64.01566976008365 -95.1674997980862,64.50631082745359 -95.06936237431034,65.03875124607731 M-95.07044303396543,65.03854594650728 L-95.06973375309242,65.03517191253196 C-94.97148333636598,65.49532329973864 -94.92,65.97064886465544 -94.92,66.4579990070668 C-94.92,66.46546789674716 -94.92001209195656,66.47293396219973 -94.9200358730673,66.4802781837316 M-94.9200412549045,66.47900171194348 L-94.92004081658094,66.47887445687662 C-94.92001346874808,66.48687688456047 -94.92,66.4947563729163 -94.92,66.5026390070668 C-94.92,66.99028580329617 -94.9715460320555,67.46589337866807 -95.06906120495064,67.92231722168825 M-95.06978148936057,67.92078605777472 L-95.06927462952625,67.92141136823075 C-95.16784862783561,68.4547510270934 -95.38804236434737,68.9443055471617 -95.70002098455629,69.36109969606737 M-97.7999587450955,66.48163630219014 L-97.79995918341906,66.48176355725698 C-97.79998653125192,66.47376112957313 -97.8,66.46588164121731 -97.8,66.4579990070668 C-97.8,65.96994238642776 -97.74836729168986,65.49394523097016 -97.65069196838678,65.03716428980113 M-97.64955696603458,67.92209206762632 L-97.65026624690759,67.92546610160164 C-97.74851666363402,67.46531471439498 -97.8,66.98998914947818 -97.8,66.5026390070668 C-97.8,66.49471430350499 -97.79998638710357,66.48679277940549 -97.79995961551387,66.47900056375741" style="stroke:#a0a0a4;stroke-width:0.25;"/>
                <path d="M-90.6600266918124,69.36019096573598 L-90.65995667995713,69.36025755233617 C-90.79966554752568,69.57689782228337 -91.04308386749022,69.7203190070668 -91.32000000000001,69.7203190070668 C-91.59673141219082,69.7203190070668 -91.84000968718817,69.57708910020267 -91.97972908726719,69.36074446814911 M-91.97902677752133,69.36241234548226 L-91.9791443551007,69.36259874975958 C-92.2920774234531,68.94496825404997 -92.5127882019138,68.45432718668002 -92.61092562568965,67.92188676805631 M-92.61061662174171,65.04044577349582 L-92.61112297950123,65.03982103151203 C-92.51248925084359,64.50563408828928 -92.29185101343498,64.01535228050923 -91.97918104989607,63.59808823517917 M-91.97967667042342,63.59998640363691 L-91.97974630963826,63.59992021230537 C-91.83998969856982,63.383537145921444 -91.5967200435987,63.24031900706681 -91.32000000000001,63.24031900706681 C-91.0432685878092,63.24031900706681 -90.79999031281184,63.383548913930944 -90.66027091273283,63.5998935459845 M-90.66126122247869,63.59822566865135 L-90.66114364489931,63.59803926437403 C-90.3482105765469,64.01566976008365 -90.1274997980862,64.50631082745359 -90.02936237431035,65.03875124607731 M-90.03044303396543,65.03854594650728 L-90.02973375309242,65.03517191253196 C-89.93148333636599,65.49532329973864 -89.88,65.97064886465544 -89.88,66.4579990070668 C-89.88,66.46546789674716 -89.88001209195656,66.47293396219973 -89.8800358730673,66.4802781837316 M-89.88004125490451,66.47900171194348 L-89.88004081658094,66.47887445687662 C-89.88001346874809,66.48687688456047 -89.88,66.4947563729163 -89.88,66.5026390070668 C-89.88,66.99028580329617 -89.93154603205551,67.46589337866807 -90.02906120495065,67.92231722168825 M-90.02978148936057,67.92078605777472 L-90.02927462952626,67.92141136823075 C-90.12784862783562,68.4547510270934 -90.34804236434738,68.9443055471617 -90.66002098455628,69.36109969606737 M-92.7599587450955,66.48163630219014 L-92.75995918341907,66.48176355725698 C-92.75998653125193,66.47376112957313 -92.76,66.46588164121731 -92.76,66.4579990070668 C-92.76,65.96994238642776 -92.70836729168987,65.49394523097016 -92.61069196838677,65.03716428980113 M-92.60955696603459,67.92209206762632 L-92.61026624690759,67.92546610160164 C-92.70851666363403,67.46531471439498 -92.76,66.98998914947818 -92.76,66.5026390070668 C-92.76,66.49471430350499 -92.75998638710358,66.48679277940549 -92.75995961551386,66.47900056375741" style="stroke:#a0a0a4;stroke-width:0.25;"/>
            </g>
            <path d="M-152.5,39.75 L-152.5,66.48 M-57.5,39.75 L-57.5,66.48 M-152.5,60 L-57.5,60 " style="stroke:#a0a0a4;stroke-width:0.25;"/>
        </g>
        <!-- Diametric Dimension -->
        <g>
            <path d="M-12.5,87.49999999999999 L-6.0200000000000005,88.5790098329472 L-6.0200000000000005,86.42099016705278 Z" style="stroke:#a0a0a4;stroke-width:0.25;fill:#a0a0a4;fill-rule:evenodd;"/>
            <path d="M12.5,87.49999999999999 L6.0200000000000005,86.42099016705278 L6.0200000000000005,88.5790098329472 Z" style="stroke:#a0a0a4;stroke-width:0.25;fill:#a0a0a4;fill-rule:evenodd;"/>
            <g>
                <path d="M17.76,86.76 L14.880000000000003,86.76 L17.662800000000004,91.54584 M17.66227785740667,91.54510563842624 L17.662342058234834,91.54498239779129 C17.72443695479501,91.65143181062702 17.76,91.7752028081835 17.76,91.90728 C17.76,91.99623190551034 17.743869278222625,92.08141627908225 17.71441871714586,92.15994675028763 M17.71425837192352,92.16006053980016 L17.714533650136243,92.16038851584162 C17.554314128932578,92.78145952946346 16.990705997107,93.24000000000001 16.32,93.24000000000001 C15.649333082741425,93.24000000000001 15.085751550642046,92.78151296321865 14.925689485117738,92.16125333191948" style="stroke:#a0a0a4;stroke-width:0.25;"/>
                <path d="M22.8,93.24000000000001 L19.92,93.24000000000001 L19.92,90.36 L21.36,90.36 M22.8,88.92 C22.8,89.715290039712 22.155290039712,90.36 21.36,90.36 M22.8,88.92 L22.8,88.2 M21.36,86.76 C22.155290039712,86.76 22.8,87.404709960288 22.8,88.2 M21.36,86.76 L19.92,86.76" style="stroke:#a0a0a4;stroke-width:0.25;"/>
                <path d="M24.96,86.76 L24.96,87.12" style="stroke:#a0a0a4;stroke-width:0.25;"/>
                <path d="M29.2199733081876,92.87987195866917 L29.220043320042866,92.87993854526937 C29.080334452474332,93.09657881521656 28.836916132509785,93.24000000000001 28.56,93.24000000000001 C28.283268587809193,93.24000000000001 28.03999031281183,93.09677009313587 27.900270912732818,92.88042546108231 M27.900973222478683,92.88209333841546 L27.90085564489931,92.88227974269279 C27.587922576546905,92.46464924698316 27.3672117980862,91.97400817961322 27.26907437431035,91.4415677609895 M27.269383378258297,88.56012676642902 L27.26887702049877,88.55950202444522 C27.367510749156416,88.02531508122249 27.588148986565024,87.53503327344244 27.900818950103933,87.11776922811237 M27.900323329576587,87.11966739657011 L27.900253690361748,87.11960120523857 C28.04001030143018,86.90321813885464 28.283279956401316,86.76 28.56,86.76 C28.836731412190804,86.76 29.08000968718817,86.90322990686414 29.21972908726718,87.1195745389177 M29.218738777521324,87.11790666158456 L29.21885635510069,87.11772025730723 C29.53178942345309,87.53535075301684 29.752500201913797,88.02599182038679 29.85063762568965,88.5584322390105 M29.849556966034577,88.55822693944049 L29.850266246907584,88.55485290546517 C29.948516663634024,89.01500429267183 30,89.49032985758863 30,89.97768 C30,89.98514888968036 29.999987908043437,89.99261495513292 29.999964126932696,89.9999591766648 M29.99995874509549,89.99868270487667 L29.999959183419065,89.99855544980983 C29.99998653125192,90.00655787749366 30,90.0144373658495 30,90.02232000000001 C30,90.50996679622936 29.94845396794449,90.98557437160126 29.850938795049352,91.44199821462145 M29.850218510639436,91.44046705070792 L29.85072537047375,91.44109236116395 C29.75215137216439,91.97443202002658 29.531957635652628,92.4639865400949 29.21997901544372,92.88078068900057 M27.120041254904507,90.00131729512333 L27.12004081658094,90.00144455019019 C27.12001346874808,89.99344212250634 27.119999999999997,89.98556263415051 27.119999999999997,89.97768 C27.119999999999997,89.48962337936096 27.17163270831014,89.01362622390334 27.269308031613225,88.55684528273432 M27.27044303396542,91.44177306055953 L27.269733753092414,91.44514709453485 C27.171483336365977,90.98499570732817 27.119999999999997,90.50967014241137 27.119999999999997,90.02232000000001 C27.119999999999997,90.01439529643818 27.12001361289642,90.00647377233868 27.12004038448614,89.9986815566906" style="stroke:#a0a0a4;stroke-width:0.25;"/>
                <path d="M34.259973308187604,92.87987195866917 L34.26004332004287,92.87993854526937 C34.12033445247434,93.09657881521656 33.876916132509784,93.24000000000001 33.6,93.24000000000001 C33.323268587809196,93.24000000000001 33.07999031281183,93.09677009313587 32.94027091273282,92.88042546108231 M32.940973222478675,92.88209333841546 L32.94085564489931,92.88227974269279 C32.62792257654691,92.46464924698316 32.407211798086195,91.97400817961322 32.309074374310356,91.4415677609895 M32.309383378258296,88.56012676642902 L32.30887702049877,88.55950202444522 C32.407510749156415,88.02531508122249 32.62814898656502,87.53503327344244 32.94081895010393,87.11776922811237 M32.940323329576586,87.11966739657011 L32.94025369036175,87.11960120523857 C33.08001030143018,86.90321813885464 33.32327995640131,86.76 33.6,86.76 C33.87673141219081,86.76 34.12000968718817,86.90322990686414 34.25972908726718,87.1195745389177 M34.258738777521316,87.11790666158456 L34.25885635510069,87.11772025730723 C34.5717894234531,87.53535075301684 34.792500201913796,88.02599182038679 34.89063762568965,88.5584322390105 M34.889556966034576,88.55822693944049 L34.890266246907586,88.55485290546517 C34.988516663634016,89.01500429267183 35.04,89.49032985758863 35.04,89.97768 C35.04,89.98514888968036 35.03998790804344,89.99261495513292 35.039964126932695,89.9999591766648 M35.03995874509549,89.99868270487667 L35.03995918341906,89.99855544980983 C35.03998653125192,90.00655787749366 35.04,90.0144373658495 35.04,90.02232000000001 C35.04,90.50996679622936 34.988453967944494,90.98557437160126 34.89093879504935,91.44199821462145 M34.89021851063944,91.44046705070792 L34.890725370473746,91.44109236116395 C34.7921513721644,91.97443202002658 34.57195763565262,92.4639865400949 34.25997901544372,92.88078068900057 M32.160041254904506,90.00131729512333 L32.16004081658094,90.00144455019019 C32.160013468748076,89.99344212250634 32.16,89.98556263415051 32.16,89.97768 C32.16,89.48962337936096 32.211632708310134,89.01362622390334 32.30930803161323,88.55684528273432 M32.31044303396542,91.44177306055953 L32.30973375309242,91.44514709453485 C32.21148333636597,90.98499570732817 32.16,90.50967014241137 32.16,90.02232000000001 C32.16,90.01439529643818 32.16001361289642,90.00647377233868 32.16004038448614,89.9986815566906" style="stroke:#a0a0a4;stroke-width:0.25;"/>
                <path d="M39.2999733081876,92.87987195866917 L39.30004332004286,92.87993854526937 C39.16033445247433,93.09657881521656 38.91691613250978,93.24000000000001 38.64,93.24000000000001 C38.363268587809195,93.24000000000001 38.11999031281183,93.09677009313587 37.98027091273282,92.88042546108231 M37.98097322247868,92.88209333841546 L37.98085564489931,92.88227974269279 C37.6679225765469,92.46464924698316 37.4472117980862,91.97400817961322 37.34907437431035,91.4415677609895 M37.349383378258295,88.56012676642902 L37.348877020498776,88.55950202444522 C37.44751074915642,88.02531508122249 37.66814898656503,87.53503327344244 37.980818950103924,87.11776922811237 M37.98032332957659,87.11966739657011 L37.98025369036175,87.11960120523857 C38.120010301430185,86.90321813885464 38.363279956401314,86.76 38.64,86.76 C38.916731412190806,86.76 39.16000968718817,86.90322990686414 39.29972908726718,87.1195745389177 M39.29873877752132,87.11790666158456 L39.298856355100696,87.11772025730723 C39.61178942345309,87.53535075301684 39.8325002019138,88.02599182038679 39.93063762568965,88.5584322390105 M39.929556966034575,88.55822693944049 L39.93026624690758,88.55485290546517 C40.02851666363402,89.01500429267183 40.08,89.49032985758863 40.08,89.97768 C40.08,89.98514888968036 40.079987908043435,89.99261495513292 40.079964126932694,89.9999591766648 M40.07995874509549,89.99868270487667 L40.079959183419064,89.99855544980983 C40.07998653125192,90.00655787749366 40.08,90.0144373658495 40.08,90.02232000000001 C40.08,90.50996679622936 40.02845396794449,90.98557437160126 39.93093879504936,91.44199821462145 M39.930218510639435,91.44046705070792 L39.93072537047375,91.44109236116395 C39.83215137216439,91.97443202002658 39.61195763565263,92.4639865400949 39.29997901544372,92.88078068900057 M37.200041254904505,90.00131729512333 L37.20004081658094,90.00144455019019 C37.20001346874808,89.99344212250634 37.2,89.98556263415051 37.2,89.97768 C37.2,89.48962337936096 37.25163270831014,89.01362622390334 37.34930803161322,88.55684528273432 M37.35044303396542,91.44177306055953 L37.349733753092416,91.44514709453485 C37.25148333636598,90.98499570732817 37.2,90.50967014241137 37.2,90.02232000000001 C37.2,90.01439529643818 37.20001361289643,90.00647377233868 37.20004038448614,89.9986815566906" style="stroke:#a0a0a4;stroke-width:0.25;"/>
                <path d="M44.339973308187595,92.87987195866917 L44.34004332004287,92.87993854526937 C44.20033445247432,93.09657881521656 43.95691613250978,93.24000000000001 43.67999999999999,93.24000000000001 C43.40326858780919,93.24000000000001 43.15999031281183,93.09677009313587 43.02027091273281,92.88042546108231 M43.02097322247867,92.88209333841546 L43.0208556448993,92.88227974269279 C42.7079225765469,92.46464924698316 42.48721179808619,91.97400817961322 42.38907437431035,91.4415677609895 M42.38938337825829,88.56012676642902 L42.38887702049877,88.55950202444522 C42.487510749156414,88.02531508122249 42.70814898656502,87.53503327344244 43.02081895010393,87.11776922811237 M43.020323329576584,87.11966739657011 L43.02025369036174,87.11960120523857 C43.16001030143018,86.90321813885464 43.403279956401306,86.76 43.67999999999999,86.76 C43.9567314121908,86.76 44.200009687188164,86.90322990686414 44.33972908726717,87.1195745389177 M44.338738777521314,87.11790666158456 L44.33885635510069,87.11772025730723 C44.65178942345309,87.53535075301684 44.872500201913795,88.02599182038679 44.97063762568964,88.5584322390105 M44.969556966034574,88.55822693944049 L44.970266246907585,88.55485290546517 C45.068516663634014,89.01500429267183 45.12,89.49032985758863 45.12,89.97768 C45.12,89.98514888968036 45.119987908043434,89.99261495513292 45.11996412693269,89.9999591766648 M45.11995874509549,89.99868270487667 L45.119959183419056,89.99855544980983 C45.11998653125191,90.00655787749366 45.12,90.0144373658495 45.12,90.02232000000001 C45.12,90.50996679622936 45.068453967944485,90.98557437160126 44.97093879504935,91.44199821462145 M44.97021851063943,91.44046705070792 L44.970725370473744,91.44109236116395 C44.87215137216439,91.97443202002658 44.65195763565262,92.4639865400949 44.33997901544372,92.88078068900057 M42.2400412549045,90.00131729512333 L42.24004081658093,90.00144455019019 C42.240013468748074,89.99344212250634 42.239999999999995,89.98556263415051 42.239999999999995,89.97768 C42.239999999999995,89.48962337936096 42.29163270831013,89.01362622390334 42.389308031613226,88.55684528273432 M42.39044303396541,91.44177306055953 L42.389733753092415,91.44514709453485 C42.29148333636597,90.98499570732817 42.239999999999995,90.50967014241137 42.239999999999995,90.02232000000001 C42.239999999999995,90.01439529643818 42.24001361289642,90.00647377233868 42.240040384486136,89.9986815566906" style="stroke:#a0a0a4;stroke-width:0.25;"/>
            </g>
            <path d="M-12.5,87.49999999999999 L12.5,87.49999999999999 " style="stroke:#a0a0a4;stroke-width:0.25;"/>
        </g>
        <!-- Arc -->
        <path d="M199.17468245269453,43.74999999999993 A12.5,12.5 0 0,1 210,24.99999999999993 " style="stroke:#000000;stroke-width:1;"/>
        <!-- Arc -->
        <path d="M-210,25 A12.5,12.5 0 0,1 -199.17468245269453,43.75 " style="stroke:#000000;stroke-width:1;"/>
        <!-- Line -->
        <path d="M-220.9080312676078,81.39550543739375 L-199.1746824526945,43.75 " style="stroke:#000000;stroke-width:1;"/>
        <!-- Line -->
        <path d="M220.9080312676078,81.39550543739372 L199.1746824526945,43.74999999999996 " style="stroke:#000000;stroke-width:1;"/>
        <!-- Text: 60 -->
        <g>
            <path d="M-184.38340687392775,24.33245468933079 L-184.993912869835,24.284705617025192 C-185.04848323818422,24.525724743901044 -185.12579126001233,24.70080467568822 -185.22583693531928,24.80994541238672 C-185.39182180571493,24.9850253441739 -185.5964606870246,25.072565310067485 -185.83975357924834,25.072565310067485 C-186.0352973991665,25.072565310067485 -186.20696668293184,25.017994941718236 -186.3547614305444,24.908854205019736 C-186.54803148511465,24.76788075345084 -186.70037376342296,24.562104989467212 -186.81178826546935,24.29152691306885 C-186.92320276751573,24.020948836670488 -186.98118378388682,23.635545610203913 -186.98573131458258,23.135317233669124 C-186.83793656697003,23.360420003109777 -186.65717222181314,23.527541756179353 -186.44343827911192,23.636682492877853 C-186.2297043364107,23.745823229576352 -186.00573844964399,23.800393597925602 -185.7715406188118,23.800393597925602 C-185.36226285619242,23.800393597925602 -185.01380831662897,23.649756643628194 -184.72617700012148,23.34848273503338 C-184.43854568361397,23.047208826438563 -184.29473002536022,22.657826510613187 -184.29473002536022,22.180335787557254 C-184.29473002536022,21.866556169549067 -184.3623745444598,21.574945763682763 -184.497663582659,21.305504569958345 C-184.63295262085816,21.036063376233923 -184.8188329380478,20.829719170913325 -185.05530453422787,20.686471953996545 C-185.29177613040795,20.543224737079765 -185.56008044145844,20.471601128621373 -185.8602174673793,20.471601128621373 C-186.37181467065352,20.471601128621373 -186.7890506119905,20.65975521115889 -187.11192529139024,21.036063376233923 C-187.43479997078995,21.41237154130896 -187.5962373104898,22.032541039944704 -187.5962373104898,22.896571872141156 C-187.5962373104898,23.86292214499245 -187.41774673068082,24.56551563748904 -187.0607655710628,25.00435234963092 C-186.7492597184025,25.386344928075673 -186.32975001171766,25.577341217298045 -185.80223645100824,25.577341217298045 C-185.40887504582406,25.577341217298045 -185.0865688077613,25.467063597925602 -184.83531773681997,25.24650835918072 C-184.58406666587862,25.025953120435833 -184.43342971158123,24.72126856381919 -184.38340687392775,24.33245468933079 M-186.8902331699714,22.176925139535424 C-186.8902331699714,21.965464962182082 -186.84532630435066,21.763099846220282 -186.7555125731092,21.569829791650022 C-186.6656988418677,21.376559737079763 -186.54007330639706,21.229333430804182 -186.37863596669717,21.128150872823284 C-186.21719862699732,21.02696831484238 -186.04780310857987,20.976377035851932 -185.8704494114448,20.976377035851932 C-185.61124016178587,20.976377035851932 -185.3884111576931,21.08097024185466 -185.2019623991665,21.29015665386012 C-185.01551364063988,21.499343065865574 -184.9222892613766,21.78356373435125 -184.9222892613766,22.142818659317143 C-184.9222892613766,22.488430992195724 -185.01437675796595,22.760714392605003 -185.19855175114466,22.959668860544976 C-185.38272674432338,23.158623328484946 -185.6146508098077,23.258100562454935 -185.8943239475976,23.258100562454935 C-186.1717233200396,23.258100562454935 -186.40705803354575,23.158623328484946 -186.60032808811602,22.959668860544976 C-186.79359814268628,22.760714392605003 -186.8902331699714,22.499799818935152 -186.8902331699714,22.176925139535424 M-183.6846333072156,23.022765848948794 C-183.6846333072156,23.613944839399 -183.62381008415966,24.08973023844402 -183.5021636380478,24.450122046083855 C-183.38051719193592,24.81051385372369 -183.19975284677903,25.088481667502684 -182.95987060257713,25.284025487420827 C-182.71998835837522,25.47956930733897 -182.41814600844344,25.577341217298045 -182.05434355278177,25.577341217298045 C-181.7860392417313,25.577341217298045 -181.55070452822517,25.523339290285765 -181.34833941226336,25.41533543626121 C-181.14597429630155,25.307331582236653 -180.97885254323197,25.1515786559065 -180.84697415305462,24.94807665727076 C-180.71509576287727,24.744574658635017 -180.61163943954847,24.496734235715508 -180.53660518306827,24.204555388512233 C-180.46157092658805,23.91237654130896 -180.42405379834793,23.518446694787812 -180.42405379834793,23.022765848948794 C-180.42405379834793,22.43613438919436 -180.4843085800669,21.962622755497225 -180.60481814350481,21.60223094785739 C-180.72532770694275,21.241839140217554 -180.90552361076266,20.96330288510159 -181.1454058549646,20.766622182509504 C-181.3852880991665,20.569941479917418 -181.6882673317722,20.471601128621373 -182.05434355278177,20.471601128621373 C-182.53638180653348,20.471601128621373 -182.9149637369564,20.644407295060663 -183.19008934405053,20.990019627939244 C-183.5197853194939,21.406118686602273 -183.6846333072156,22.083700760272123 -183.6846333072156,23.022765848948794 M-183.0536634231774,23.022765848948794 C-183.0536634231774,22.201936558362164 -182.95759683722926,21.655664433532696 -182.76546366533293,21.38394947446039 C-182.5733304934366,21.112234515388085 -182.33629045591957,20.976377035851932 -182.05434355278177,20.976377035851932 C-181.77239664964398,20.976377035851932 -181.53535661212692,21.11280295672506 -181.34322344023062,21.385654798471304 C-181.1510902683343,21.658506640217553 -181.05502368238615,22.20421032371005 -181.05502368238615,23.022765848948794 C-181.05502368238615,23.84586890488331 -181.1510902683343,24.39270947104975 -181.34322344023062,24.663287547448114 C-181.53535661212692,24.933865623846476 -181.77467041499187,25.069154662045655 -182.06116484882543,25.069154662045655 C-182.34311175196322,25.069154662045655 -182.56821452140386,24.949781981281674 -182.7364731571474,24.711036619753706 C-182.94793333450073,24.406352063137064 -183.0536634231774,23.843595139535424 -183.0536634231774,23.022765848948794 M-179.6536566231774,24.697394027666395 C-179.6536566231774,24.958877042673215 -179.5610006852511,25.181706046765985 -179.3756888093984,25.365881039944703 C-179.19037693354576,25.55005603312342 -178.96811637078994,25.642143529712776 -178.70890712113103,25.642143529712776 C-178.4451503407763,25.642143529712776 -178.2211844540096,25.55005603312342 -178.0370094608309,25.365881039944703 C-177.85283446765217,25.181706046765985 -177.76074697106282,24.958877042673215 -177.76074697106282,24.697394027666395 C-177.76074697106282,24.435911012659574 -177.85340290898915,24.21251356722983 -178.0387147848418,24.027201691377172 C-178.22402666069445,23.84188981552451 -178.4474241061242,23.74923387759818 -178.70890712113103,23.74923387759818 C-178.96811637078994,23.74923387759818 -179.19037693354576,23.84132137418754 -179.3756888093984,24.02549636736626 C-179.5610006852511,24.209671360544974 -179.6536566231774,24.433637247311687 -179.6536566231774,24.697394027666395 M-179.28189598879814,24.697394027666395 C-179.28189598879814,24.538230453314416 -179.22562029643797,24.402372973778263 -179.11306891171765,24.289821589057937 C-179.00051752699733,24.177270204337606 -178.86466004746117,24.120994511977443 -178.70549647310918,24.120994511977443 C-178.5486066641051,24.120994511977443 -178.41388606724288,24.177270204337606 -178.30133468252257,24.289821589057937 C-178.18878329780225,24.402372973778263 -178.13250760544207,24.538230453314416 -178.13250760544207,24.697394027666395 C-178.13250760544207,24.856557602018373 -178.18878329780225,24.992415081554526 -178.30133468252257,25.104966466274853 C-178.41388606724288,25.21751785099518 -178.5486066641051,25.273793543355342 -178.70549647310918,25.273793543355342 C-178.86466004746117,25.273793543355342 -179.00051752699733,25.21751785099518 -179.11306891171765,25.104966466274853 C-179.22562029643797,24.992415081554526 -179.28189598879814,24.856557602018373 -179.28189598879814,24.697394027666395" style="fill:#a0a0a4;fill-rule:evenodd;"/>
        </g>
    </g>
</svg>
