<?xml version="1.0" encoding="UTF-8"?>
<!-- 2018-04-27 16:43:21 Generated by QCAD SVG Exporter -->
<svg width="485mm" height="140.0000000000003mm" viewBox="-242.5 -120.00000000000006 485 140.0000000000003" version="1.1" xmlns="http://www.w3.org/2000/svg" style="stroke-linecap:round;stroke-linejoin:round;fill:none">
    <g transform="scale(1,-1)">
        <!-- Polyline -->
        <path d="M0,0 L-210,0" style="stroke:#000000;stroke-width:1;"/>
        <!-- Polyline -->
        <path d="M0,0 L210,0" style="stroke:#000000;stroke-width:1;"/>
        <!-- Polyline -->
        <path d="M210,99.99999999999994 L0,75" style="stroke:#000000;stroke-width:1;"/>
        <!-- Polyline -->
        <path d="M-210,100 L0,75" style="stroke:#000000;stroke-width:1;"/>
        <!-- Arc -->
        <path d="M-70,25 A12.5,12.5 0 0,1 -70,50 " style="stroke:#000000;stroke-width:1;"/>
        <!-- Arc -->
        <path d="M-140,50 A12.5,12.5 0 0,1 -140,25 " style="stroke:#000000;stroke-width:1;"/>
        <!-- Arc -->
        <path d="M-210,25 A12.5,12.5 0 0,1 -210,0 " style="stroke:#000000;stroke-width:1;"/>
        <!-- Arc -->
        <path d="M210,-2.5934809855243657e-13 A12.5,12.5 0 0,1 210,24.99999999999974 " style="stroke:#000000;stroke-width:1;"/>
        <!-- Arc -->
        <path d="M70.00000000000001,49.99999999999997 A12.5,12.5 0 0,1 70.00000000000001,24.99999999999997 " style="stroke:#000000;stroke-width:1;"/>
        <!-- Arc -->
        <path d="M140,24.999999999999993 A12.5,12.5 0 0,1 140,49.99999999999999 " style="stroke:#000000;stroke-width:1;"/>
        <!-- Line -->
        <!-- Line -->
        <!-- Line -->
        <!-- Line -->
        <!-- Line -->
        <!-- Line -->
        <!-- Line -->
        <path d="M-140,50 L-70,50 " style="stroke:#000000;stroke-width:1;"/>
        <!-- Line -->
        <path d="M140,49.99999999999997 L70.00000000000001,50 " style="stroke:#000000;stroke-width:1;"/>
        <!-- Line -->
        <path d="M-140,25 L-70,25 " style="stroke:#000000;stroke-width:1;"/>
        <!-- Line -->
        <path d="M140,25.00000000000008 L70,24.99999999999999 " style="stroke:#000000;stroke-width:1;"/>
        <!-- Line -->
        <!-- Line -->
        <!-- Line -->
        <!-- Line -->
        <!-- Line -->
        <!-- Line -->
        <!-- Line -->
        <!-- Line -->
        <!-- Line -->
        <!-- Line -->
        <!-- Line -->
        <!-- Line -->
        <!-- Circle -->
        <!-- Circle -->
        <!-- Line -->
        <!-- Line -->
        <!-- Line -->
        <!-- Line -->
        <!-- Circle -->
        <!-- Circle -->
        <!-- Circle -->
        <!-- Circle -->
        <!-- Circle -->
        <!-- Circle -->
        <!-- Line -->
        <!-- Line -->
        <!-- Line -->
        <!-- Line -->
        <!-- Polyline -->
        <!-- Arc -->
        <path d="M-210.00000000000003,100 A12.50000000000001,12.50000000000001 0 0,1 -220.90803126760787,81.39550543739375 " style="stroke:#000000;stroke-width:1;"/>
        <!-- Arc -->
        <path d="M220.90803126760787,81.39550543739381 A12.50000000000001,12.50000000000001 0 0,1 210.00000000000003,100.00000000000006 " style="stroke:#000000;stroke-width:1;"/>
        <!-- Aligned Dimension -->
        <g/>
        <!-- Rotated Dimension -->
        <g/>
        <!-- Aligned Dimension -->
        <g/>
        <!-- Aligned Dimension -->
        <g/>
        <!-- Diametric Dimension -->
        <g/>
        <!-- Arc -->
        <path d="M199.17468245269453,43.74999999999993 A12.5,12.5 0 0,1 210,24.99999999999993 " style="stroke:#000000;stroke-width:1;"/>
        <!-- Arc -->
        <path d="M-210,25 A12.5,12.5 0 0,1 -199.17468245269453,43.75 " style="stroke:#000000;stroke-width:1;"/>
        <!-- Line -->
        <path d="M-220.9080312676078,81.39550543739375 L-199.1746824526945,43.75 " style="stroke:#000000;stroke-width:1;"/>
        <!-- Line -->
        <path d="M220.9080312676078,81.39550543739372 L199.1746824526945,43.74999999999996 " style="stroke:#000000;stroke-width:1;"/>
        <!-- Text: 60° -->
    </g>
</svg>
