<?xml version="1.0" encoding="utf-8"?>
<!-- Generator: Adobe Illustrator 16.0.4, SVG Export Plug-In . SVG Version: 6.00 Build 0)  -->
<!DOCTYPE svg PUBLIC "-//W3C//DTD SVG 1.1//EN" "http://www.w3.org/Graphics/SVG/1.1/DTD/svg11.dtd">
<svg version="1.1" id="Layer_1" xmlns="http://www.w3.org/2000/svg" xmlns:xlink="http://www.w3.org/1999/xlink" x="0px" y="0px"
	 width="673.229px" height="184.252px" viewBox="0 0 673.229 184.252" enable-background="new 0 0 673.229 184.252"
	 xml:space="preserve">
<g transform="scale(1,-1)">
	<path fill="none" stroke="#000000" stroke-width="2" stroke-linecap="round" stroke-linejoin="round" d="M336.613-162.992H38.975"
		/>
	<path fill="none" stroke="#000000" stroke-width="2" stroke-linecap="round" stroke-linejoin="round" d="M336.613-162.992h297.638"
		/>
	<path fill="none" stroke="#000000" stroke-width="2" stroke-linecap="round" stroke-linejoin="round" d="M634.251-21.26
		L336.613-56.693"/>
	<path fill="none" stroke="#000000" stroke-width="2" stroke-linecap="round" stroke-linejoin="round" d="M38.975-21.26
		l297.638-35.433"/>
	<path fill="none" stroke="#000000" stroke-width="2" stroke-linecap="round" stroke-linejoin="round" d="M237.4-127.56
		c9.785,0,17.717,7.933,17.717,17.717c0,9.785-7.932,17.717-17.717,17.717"/>
	<path fill="none" stroke="#000000" stroke-width="2" stroke-linecap="round" stroke-linejoin="round" d="M138.188-92.126
		c-9.785,0-17.716-7.932-17.716-17.717c0-9.784,7.932-17.717,17.716-17.717"/>
	<path fill="none" stroke="#000000" stroke-width="2" stroke-linecap="round" stroke-linejoin="round" d="M38.975-127.56
		c-9.785,0-17.717-7.932-17.717-17.716s7.932-17.717,17.717-17.717"/>
	<path fill="none" stroke="#000000" stroke-width="2" stroke-linecap="round" stroke-linejoin="round" d="M634.251-162.992
		c9.783,0,17.717,7.933,17.717,17.717s-7.934,17.716-17.717,17.716l0,0"/>
	<path fill="none" stroke="#000000" stroke-width="2" stroke-linecap="round" stroke-linejoin="round" d="M435.825-92.126
		c-9.785,0-17.717-7.932-17.717-17.717c0-9.784,7.932-17.717,17.717-17.717"/>
	<path fill="none" stroke="#000000" stroke-width="2" stroke-linecap="round" stroke-linejoin="round" d="M535.038-127.56
		c9.784,0,17.717,7.933,17.717,17.717c0,9.785-7.933,17.717-17.717,17.717"/>
	<path fill="none" stroke="#000000" stroke-width="2" stroke-linecap="round" stroke-linejoin="round" d="M138.188-92.126H237.4"/>
	<path fill="none" stroke="#000000" stroke-width="2" stroke-linecap="round" stroke-linejoin="round" d="M535.038-92.126h-99.213"
		/>
	<path fill="none" stroke="#000000" stroke-width="2" stroke-linecap="round" stroke-linejoin="round" d="M138.188-127.56H237.4"/>
	<path fill="none" stroke="#000000" stroke-width="2" stroke-linecap="round" stroke-linejoin="round" d="M535.038-127.56h-99.213"
		/>
	<path fill="none" stroke="#000000" stroke-width="2" stroke-linecap="round" stroke-linejoin="round" d="M38.975-21.26
		c-9.785,0-17.717-7.932-17.717-17.717c0-3.029,0.777-6.008,2.256-8.652"/>
	<path fill="none" stroke="#000000" stroke-width="2" stroke-linecap="round" stroke-linejoin="round" d="M649.71-47.628
		c4.779,8.539,1.73,19.334-6.807,24.112c-2.645,1.479-5.623,2.256-8.652,2.256"/>
	<path fill="none" stroke="#000000" stroke-width="2" stroke-linecap="round" stroke-linejoin="round" d="M618.907-100.984
		c-4.893-8.474-1.988-19.309,6.484-24.201c2.693-1.555,5.748-2.374,8.859-2.374"/>
	<path fill="none" stroke="#000000" stroke-width="2" stroke-linecap="round" stroke-linejoin="round" d="M38.975-127.56
		c9.784,0,17.716,7.933,17.716,17.717c0,3.11-0.818,6.165-2.374,8.858"/>
	<path fill="none" stroke="#000000" stroke-width="2" stroke-linecap="round" stroke-linejoin="round" d="M23.515-47.628
		l30.803-53.356"/>
	<path fill="none" stroke="#000000" stroke-width="2" stroke-linecap="round" stroke-linejoin="round" d="M649.71-47.628
		l-30.803-53.356"/>
</g>
</svg>
